<svg height="512" viewBox="0 0 60 58" width="512" xmlns="http://www.w3.org/2000/svg"><g id="007---Automated-Sprinklers"><rect id="Rectangle-path" height="5" rx="2" width="58" x="1"/><path id="Shape" d="m19 8c0 2.7614237 2.2385763 5 5 5h12c1.3260824 0 2.597852-.5267842 3.5355339-1.4644661s1.4644661-2.20945145 1.4644661-3.5355339v-1h-22z"/><path id="Shape" d="m25 25v2c0 .5522847.4477153 1 1 1h8c.5522847 0 1-.4477153 1-1v-2c0-.5522847-.4477153-1-1-1h-2.4c2-2.54 2.4-2.79 2.4-3.7v-5.3h-3v5c0 .5522847-.4477153 1-1 1s-1-.4477153-1-1v-5h-3v5.3c0 .93.4 1.2 2.4 3.7h-2.4c-.5522847 0-1 .4477153-1 1z"/><path id="Shape" d="m35.68 57.35c1.0988456-.8044822 1.98452-1.8652319 2.58-3.09 1.83-3.84 0-7.87-2.58-11.22.45 1.41-.68 4-2.47 3.85-2.53-.16-1.75-3.26-1.1-4.65.89-1.88-.49-3.59-.92-4.05-1.5019513-1.3640619-3.1141093-2.6016105-4.82-3.7.4.25.62 1.64.73 2.06 1.21 5.18-2.33 8-4.14 11.26-.9398266 1.6635513-1.1726487 3.6347069-.6462564 5.4714399.5263923 1.8367331 1.7679498 3.3853438 3.4462564 4.2985601-1-1.8-.66-4.32.29-6.51.7250958-1.5672292 1.7050538-3.0033746 2.9-4.25.1810131-.1960751.4328865-.3116683.6995754-.3210588.2666889-.0093904.5260688.0882009.7204246.2710588.3302908.3087857.4122905.800784.2 1.2 0 .13 0 .35.07.45.0292426.3562486.1460354.6997569.34 1 .6191278.6708126 1.3499705 1.2290952 2.16 1.65 1.58 1 4.49 2.8 2.9 5.75-.1079605.1845514-.2282329.3616191-.36.53z"/><path id="Shape" d="m34.24 55.89c1.24-2.29-4.24-3.29-5.24-5.89-.4305998.6100568-.8022695 1.2596417-1.11 1.94-.67 1.54-1.4 4.7.6 5.69 1.79.85 4.76.1 5.75-1.74z"/><path id="Shape" d="m18.18 28c0 .5522847.4477153 1 1 1s1-.4477153 1-1-.4477153-1-1-1-1 .4477153-1 1z"/><path id="Shape" d="m3.65 36.41c0 .5522847.44771525 1 1 1s1-.4477153 1-1-.44771525-1-1-1-1 .4477153-1 1z"/><path id="Shape" d="m15.54 29.12c-.5522847 0-1 .4477153-1 1s.4477153 1 1 1 1-.4477153 1-1-.4477153-1-1-1z"/><path id="Shape" d="m7.28 34.31c0 .5522847.44771525 1 1 1s1-.4477153 1-1-.44771525-1-1-1-1 .4477153-1 1z"/><path id="Shape" d="m11.91 31.22c-.5522847 0-1 .4477153-1 1s.4477153 1 1 1 1-.4477153 1-1-.4477153-1-1-1z"/><path id="Shape" d="m1 37.51c-.55228475 0-1 .4477153-1 1s.44771525 1 1 1 1-.4477153 1-1-.44771525-1-1-1z"/><path id="Shape" d="m59 37.51c-.5522847 0-1 .4477153-1 1s.4477153 1 1 1 1-.4477153 1-1-.4477153-1-1-1z"/><path id="Shape" d="m44.47 29.12c-.5522847 0-1 .4477153-1 1s.4477153 1 1 1 1-.4477153 1-1-.4477153-1-1-1z"/><path id="Shape" d="m49.11 32.22c0-.5522847-.4477153-1-1-1s-1 .4477153-1 1 .4477153 1 1 1 1-.4477153 1-1z"/><path id="Shape" d="m56.38 36.41c0-.5522847-.4477153-1-1-1s-1 .4477153-1 1 .4477153 1 1 1 1-.4477153 1-1z"/><path id="Shape" d="m51.75 35.31c.5522847 0 1-.4477153 1-1s-.4477153-1-1-1-1 .4477153-1 1 .4477153 1 1 1z"/><path id="Shape" d="m40.84 27c-.5522847 0-1 .4477153-1 1s.4477153 1 1 1 1-.4477153 1-1-.4477153-1-1-1z"/><path id="Shape" d="m22.18 30.61c0-.5522847-.4477153-1-1-1s-1 .4477153-1 1 .4477153 1 1 1 1-.4477153 1-1z"/><path id="Shape" d="m15.92 34.87c-.5522847 0-1 .4477153-1 1s.4477153 1 1 1 1-.4477153 1-1c0-.2652165-.1053568-.5195704-.2928932-.7071068s-.4418903-.2928932-.7071068-.2928932z"/><path id="Shape" d="m10.67 42.12c.5522847 0 1-.4477153 1-1s-.4477153-1-1-1-1 .4477153-1 1 .4477153 1 1 1z"/><path id="Shape" d="m13.29 37.49c-.5522847 0-1 .4477153-1 1s.4477153 1 1 1 1-.4477153 1-1-.4477153-1-1-1z"/><path id="Shape" d="m5.42 47.37c.55228475 0 1-.4477153 1-1s-.44771525-1-1-1-1 .4477153-1 1 .44771525 1 1 1z"/><path id="Shape" d="m18.55 34.24c.5522847 0 1-.4477153 1-1s-.4477153-1-1-1-1 .4477153-1 1 .4477153 1 1 1z"/><path id="Shape" d="m8 42.74c-.55228475 0-1 .4477153-1 1s.44771525 1 1 1 1-.4477153 1-1-.44771525-1-1-1z"/><path id="Shape" d="m2.79 50c.55228475 0 1-.4477153 1-1s-.44771525-1-1-1-1 .4477153-1 1 .44771525 1 1 1z"/><path id="Shape" d="m16.51 21.77c0 .5522847.4477153 1 1 1s1-.4477153 1-1-.4477153-1-1-1-1 .4477153-1 1z"/><path id="Shape" d="m9.27 22.77c.55228475 0 1-.4477153 1-1s-.44771525-1-1-1-1 .4477153-1 1 .44771525 1 1 1z"/><path id="Shape" d="m5.14 22.77c.55228475 0 1-.4477153 1-1s-.44771525-1-1-1-1 .4477153-1 1 .44771525 1 1 1z"/><path id="Shape" d="m12.39 21.77c0 .5522847.4477153 1 1 1s1-.4477153 1-1-.4477153-1-1-1-1 .4477153-1 1z"/><path id="Shape" d="m1 22.77c.55228475 0 1-.4477153 1-1s-.44771525-1-1-1-1 .4477153-1 1 .44771525 1 1 1z"/><path id="Shape" d="m59 20.77c-.5522847 0-1 .4477153-1 1s.4477153 1 1 1 1-.4477153 1-1-.4477153-1-1-1z"/><path id="Shape" d="m50.76 20.77c-.5522847 0-1 .4477153-1 1s.4477153 1 1 1 1-.4477153 1-1-.4477153-1-1-1z"/><path id="Shape" d="m46.63 20.77c-.5522847 0-1 .4477153-1 1s.4477153 1 1 1 1-.4477153 1-1-.4477153-1-1-1z"/><path id="Shape" d="m54.88 20.77c-.5522847 0-1 .4477153-1 1s.4477153 1 1 1 1-.4477153 1-1-.4477153-1-1-1z"/><path id="Shape" d="m42.51 20.77c-.5522847 0-1 .4477153-1 1s.4477153 1 1 1 1-.4477153 1-1-.4477153-1-1-1z"/><path id="Shape" d="m19 25c0-.5522847-.4477153-1-1-1s-1 .4477153-1 1 .4477153 1 1 1 1-.4477153 1-1z"/><path id="Shape" d="m10.48 27.28c0-.5522847-.4477153-1-1-1-.55228475 0-1 .4477153-1 1s.44771525 1 1 1c.5522847 0 1-.4477153 1-1z"/><path id="Shape" d="m5.24 27.42c-.55228475 0-1 .4477153-1 1s.44771525 1 1 1 1-.4477153 1-1-.44771525-1-1-1z"/><path id="Shape" d="m14.72 26.15c0-.5522847-.4477153-1-1-1s-1 .4477153-1 1 .4477153 1 1 1 1-.4477153 1-1z"/><path id="Shape" d="m1 30.55c.55228475 0 1-.4477153 1-1s-.44771525-1-1-1-1 .4477153-1 1 .44771525 1 1 1z"/><path id="Shape" d="m59 13c-.5522847 0-1 .4477153-1 1s.4477153 1 1 1 1-.4477153 1-1-.4477153-1-1-1z"/><path id="Shape" d="m50.54 15.27c-.5522847 0-1 .4477153-1 1s.4477153 1 1 1 1-.4477153 1-1-.4477153-1-1-1z"/><path id="Shape" d="m46.31 16.4c-.5522847 0-1 .4477153-1 1s.4477153 1 1 1 1-.4477153 1-1-.4477153-1-1-1z"/><path id="Shape" d="m54.78 14.13c-.5522847 0-1 .4477153-1 1s.4477153 1 1 1 1-.4477153 1-1-.4477153-1-1-1z"/><path id="Shape" d="m42.08 17.54c-.5522847 0-1 .4477153-1 1s.4477153 1 1 1 1-.4477153 1-1-.4477153-1-1-1z"/><path id="Shape" d="m59 28.55c-.5522847 0-1 .4477153-1 1s.4477153 1 1 1 1-.4477153 1-1-.4477153-1-1-1z"/><path id="Shape" d="m54.79 29.42c.5522847 0 1-.4477153 1-1s-.4477153-1-1-1-1 .4477153-1 1 .4477153 1 1 1z"/><path id="Shape" d="m46.32 27.15c.5522847 0 1-.4477153 1-1s-.4477153-1-1-1-1 .4477153-1 1 .4477153 1 1 1z"/><path id="Shape" d="m51.55 27.28c0-.5522847-.4477153-1-1-1s-1 .4477153-1 1 .4477153 1 1 1 1-.4477153 1-1z"/><path id="Shape" d="m42.09 26c.5522847 0 1-.4477153 1-1s-.4477153-1-1-1-1 .4477153-1 1 .4477153 1 1 1z"/><path id="Shape" d="m17.94 17.54c-.5522847 0-1 .4477153-1 1s.4477153 1 1 1 1-.4477153 1-1-.4477153-1-1-1z"/><path id="Shape" d="m13.71 16.41c-.5522847 0-1 .4477153-1 1s.4477153 1 1 1 1-.4477153 1-1-.4477153-1-1-1z"/><path id="Shape" d="m5.25 16.14c.55228475 0 1-.4477153 1-1s-.44771525-1-1-1-1 .4477153-1 1 .44771525 1 1 1z"/><path id="Shape" d="m9.48 17.27c.5522847 0 1-.4477153 1-1s-.4477153-1-1-1c-.55228475 0-1 .4477153-1 1s.44771525 1 1 1z"/><path id="Shape" d="m1 15c.55228475 0 1-.4477153 1-1s-.44771525-1-1-1-1 .4477153-1 1 .44771525 1 1 1z"/><path id="Shape" d="m39.86 30.61c0-.5522847-.4477153-1-1-1s-1 .4477153-1 1 .4477153 1 1 1 1-.4477153 1-1z"/><path id="Shape" d="m49.35 40.12c-.5522847 0-1 .4477153-1 1s.4477153 1 1 1 1-.4477153 1-1-.4477153-1-1-1z"/><path id="Shape" d="m46.72 37.49c-.5522847 0-1 .4477153-1 1s.4477153 1 1 1 1-.4477153 1-1-.4477153-1-1-1z"/><path id="Shape" d="m54.61 47.37c.5522847 0 1-.4477153 1-1s-.4477153-1-1-1-1 .4477153-1 1 .4477153 1 1 1z"/><path id="Shape" d="m44.1 34.86c-.5522847 0-1 .4477153-1 1s.4477153 1 1 1 1-.4477153 1-1-.4477153-1-1-1z"/><path id="Shape" d="m52 42.75c-.5522847 0-1 .4477153-1 1s.4477153 1 1 1 1-.4477153 1-1-.4477153-1-1-1z"/><path id="Shape" d="m41.47 32.24c-.5522847 0-1 .4477153-1 1s.4477153 1 1 1 1-.4477153 1-1-.4477153-1-1-1z"/><path id="Shape" d="m57.23 48c-.5522847 0-1 .4477153-1 1s.4477153 1 1 1 1-.4477153 1-1-.4477153-1-1-1z"/><path id="Shape" d="m49.27 56.13c.5522847 0 1-.4477153 1-1s-.4477153-1-1-1-1 .4477153-1 1 .4477153 1 1 1z"/><path id="Shape" d="m38.13 36.82c.5522847 0 1-.4477153 1-1s-.4477153-1-1-1-1 .4477153-1 1 .4477153 1 1 1z"/><path id="Shape" d="m40 40c.5522847 0 1-.4477153 1-1s-.4477153-1-1-1-1 .4477153-1 1 .4477153 1 1 1z"/><path id="Shape" d="m41.84 43.25c.5522847 0 1-.4477153 1-1s-.4477153-1-1-1-1 .4477153-1 1 .4477153 1 1 1z"/><path id="Shape" d="m45.55 49.68c.5522847 0 1-.4477153 1-1s-.4477153-1-1-1-1 .4477153-1 1 .4477153 1 1 1z"/><path id="Shape" d="m48.41 51.9c0-.5522847-.4477153-1-1-1s-1 .4477153-1 1 .4477153 1 1 1 1-.4477153 1-1z"/><path id="Shape" d="m43.69 46.47c.5522847 0 1-.4477153 1-1s-.4477153-1-1-1-1 .4477153-1 1 .4477153 1 1 1z"/><path id="Shape" d="m36.26 31.6c-.5522847 0-1 .4477153-1 1s.4477153 1 1 1 1-.4477153 1-1-.4477153-1-1-1z"/><path id="Shape" d="m10.77 56.12c.5522847 0 1-.4477153 1-1s-.4477153-1-1-1-1 .4477153-1 1 .4477153 1 1 1z"/><path id="Shape" d="m15.48 48.68c0-.5522847-.4477153-1-1-1s-1 .4477153-1 1 .4477153 1 1 1 1-.4477153 1-1z"/><path id="Shape" d="m12.63 52.9c.5522847 0 1-.4477153 1-1s-.4477153-1-1-1-1 .4477153-1 1 .4477153 1 1 1z"/><path id="Shape" d="m16.34 46.47c.5522847 0 1-.4477153 1-1s-.4477153-1-1-1-1 .4477153-1 1 .4477153 1 1 1z"/><path id="Shape" d="m21.91 36.82c.5522847 0 1-.4477153 1-1s-.4477153-1-1-1-1 .4477153-1 1 .4477153 1 1 1z"/><path id="Shape" d="m18.2 43.25c.5522847 0 1-.4477153 1-1s-.4477153-1-1-1-1 .4477153-1 1 .4477153 1 1 1z"/><path id="Shape" d="m20.05 40c.5522847 0 1-.4477153 1-1s-.4477153-1-1-1-1 .4477153-1 1 .4477153 1 1 1z"/><path id="Shape" d="m23.77 33.61c.5522847 0 1-.4477153 1-1s-.4477153-1-1-1-1 .4477153-1 1 .4477153 1 1 1z"/></g></svg>