<?xml version="1.0" encoding="UTF-8"?>
<svg xmlns="http://www.w3.org/2000/svg" viewBox="0 0 48 48" width="512" height="512"><path d="M30,37.46,41,37a1,1,0,0,0,1-1V32a1,1,0,0,0-1-1l-11-.46V27H41a3,3,0,0,0,3-3V16a3,3,0,0,0-3-3H30V9a4,4,0,0,0-4-4H8A4,4,0,0,0,4,9V40a4,4,0,0,0,4,4H26a4,4,0,0,0,4-4V37.46ZM28,13V9a2,2,0,0,0-2-2H8A2,2,0,0,0,6,9V40a2,2,0,0,0,2,2H26a2,2,0,0,0,2-2V37.54l-4,.17V38a3,3,0,0,1-3,3H13a3,3,0,0,1-3-3V30a3,3,0,0,1,3-3H21a3,3,0,0,1,3,3v.33l4,.17V27H26a3,3,0,0,1-3-3V17H9a1,1,0,0,1-1-1V10A1,1,0,0,1,9,9H25a1,1,0,0,1,1,1v3ZM22,30.21V30a1,1,0,0,0-1-1H13a1,1,0,0,0-1,1V38a1,1,0,0,0,1,1H21a1,1,0,0,0,1-1v-.25L17,38h0a4,4,0,0,1,0-8l5,.21ZM17,32a2,2,0,1,1-2,2,2,2,0,0,1,2-2Zm3.55.15a4,4,0,0,1,0,3.7L40,35V33l-19.45-.81ZM42,23v1a1,1,0,0,1-1,1H26a1,1,0,0,1-1-1V23ZM9,23a1,1,0,1,1-1,1,1,1,0,0,1,1-1Zm4,0a1,1,0,1,1-1,1,1,1,0,0,1,1-1Zm4,0a1,1,0,1,1-1,1,1,1,0,0,1,1-1Zm4,0a1,1,0,1,1-1,1,1,1,0,0,1,1-1Zm21-2H25V16a1,1,0,0,1,1-1H41a1,1,0,0,1,1,1v5ZM13,19a1,1,0,1,1-1,1,1,1,0,0,1,1-1ZM9,19a1,1,0,1,1-1,1,1,1,0,0,1,1-1Zm8,0a1,1,0,1,1-1,1,1,1,0,0,1,1-1Zm4,0a1,1,0,1,1-1,1,1,1,0,0,1,1-1Zm3-5.25V11H10v4H23.16A3,3,0,0,1,24,13.75ZM37,10a1,1,0,1,1-1,1,1,1,0,0,1,1-1Zm-1.31-.28A2,2,0,0,1,37,9a1.93,1.93,0,0,1,1.31.69,1,1,0,0,0,1.4-1.44,3.53,3.53,0,0,0-5.39,0,1,1,0,1,0,1.38,1.44ZM34.55,6.83A5.1,5.1,0,0,1,37,6a5.1,5.1,0,0,1,2.45.83,1,1,0,0,0,1.1-1.66A7.58,7.58,0,0,0,37,4a7.58,7.58,0,0,0-3.55,1.17,1,1,0,1,0,1.1,1.66Z" fill-rule="evenodd"/></svg>
