<svg height="512pt" viewBox="-41 0 512 512" width="512pt" xmlns="http://www.w3.org/2000/svg"><path d="m0 0v512h429v-512zm399 482h-369v-452h369zm0 0"/><path d="m369 183.921875h-309v268.886719h309zm-30 238.886719h-249v-208.886719h249zm0 0"/><path d="m214.5 387.332031c38.027344 0 68.96875-30.9375 68.96875-68.96875 0-38.027343-30.9375-68.96875-68.96875-68.96875s-68.96875 30.9375-68.96875 68.96875 30.941406 68.96875 68.96875 68.96875zm0-107.9375c21.488281 0 38.96875 17.480469 38.96875 38.96875s-17.480469 38.972657-38.96875 38.972657-38.96875-17.484376-38.96875-38.972657 17.480469-38.96875 38.96875-38.96875zm0 0"/><path d="m103.523438 116.777344h30.855468v-20.484375h-30.855468v-15.296875h37.859374v-22.042969h-63.140624v92.054687h25.28125zm0 0"/><path d="m151.230469 58.953125h25.285156v92.054687h-25.285156zm0 0"/><path d="m217.613281 122.742188h9.464844l16.203125 28.265624h28.523438l-19.445313-33.839843c4.148437-2.9375 7.386719-6.722657 9.722656-11.34375 2.332031-4.625 3.5-9.617188 3.5-14.976563 0-3.890625-.777343-7.757812-2.332031-11.605468-1.558594-3.84375-3.695312-7.257813-6.417969-10.238282-2.722656-2.984375-5.984375-5.402344-9.789062-7.261718-3.804688-1.859376-7.953125-2.789063-12.445313-2.789063h-42.269531v92.054687h25.285156zm0-41.746094h15.296875c1.558594 0 3.113282.84375 4.667969 2.527344 1.554687 1.683593 2.332031 4.128906 2.332031 7.324218 0 3.113282-.667968 5.53125-2.007812 7.261719s-2.789063 2.589844-4.34375 2.589844h-15.945313zm0 0"/><path d="m345.445312 128.964844h-40.320312v-14.519532h33.449219v-20.484374h-33.449219v-12.964844h39.152344v-22.042969h-64.433594v92.054687h65.601562zm0 0"/></svg>