<svg id="Layer_1" height="512" viewBox="0 0 512 512" width="512" xmlns="http://www.w3.org/2000/svg" data-name="Layer 1"><g><path d="m340.917 97.66c0-13.734-11.201-24.935-24.935-24.935h-280.129c-13.734 0-24.936 11.201-24.936 24.935v343.74c0 13.733 11.202 24.935 24.936 24.935h280.129c13.734 0 24.935-11.202 24.935-24.935z" fill="#dea368" fill-rule="evenodd"/><path d="m340.917 97.66c0-13.734-11.201-24.935-24.935-24.935h-269.91c-13.734 0-24.935 11.201-24.935 24.935v343.74c0 13.733 11.202 24.935 24.935 24.935h269.91c13.734 0 24.935-11.202 24.936-24.935v-343.74z" fill="#e6b17c" fill-rule="evenodd"/><path d="m315.832 97.81h7.802v343.439h-7.802z" fill="#dea368"/><path d="m36.003 97.81h279.829v343.439h-279.829z" fill="#f3f3ff"/><g fill-rule="evenodd"><path d="m175.917 30.15c16.2 0 29.332 13.133 29.332 29.332v4.029l29.079-5.083c4.371-.764 8.44.331 11.836 3.186 3.397 2.854 5.176 6.674 5.176 11.111v31.567h-150.846v-31.567c0-4.437 1.779-8.257 5.176-11.111 3.397-2.855 7.466-3.949 11.836-3.186l29.079 5.083v-4.029c0-16.199 13.132-29.332 29.332-29.332z" fill="#ab733a"/><path d="m184.501 31.428c12.012 3.67 20.749 14.842 20.749 28.054v4.029l29.079-5.083c4.371-.764 8.44.331 11.837 3.186 3.397 2.854 5.176 6.674 5.176 11.111v31.566h-143.756v-30.326c0-4.438 1.779-8.257 5.176-11.111s7.466-3.95 11.836-3.186l21.987 3.843 7.093 1.24v-4.029c0-16.2 13.132-29.332 29.332-29.332.5 0 .997.013 1.49.038z" fill="#ba8047"/><path d="m175.917 67.22c4.215 0 7.653-3.438 7.653-7.652s-3.438-7.653-7.653-7.653-7.652 3.438-7.652 7.653 3.438 7.652 7.652 7.652z" fill="#e9e9ff"/></g></g><g fill-rule="evenodd"><path d="m66.765 395.991c-1.37-2.394-.539-5.446 1.856-6.816s5.446-.539 6.816 1.856l4.454 7.773 18.701-18.701c1.952-1.952 5.118-1.952 7.07 0s1.952 5.118 0 7.07l-23.321 23.321-.002-.002c-.307.306-.658.578-1.052.803-2.394 1.37-5.446.539-6.816-1.855l-7.705-13.448z" fill="#4eb1fc"/><path d="m125.752 390.998c-2.761 0-5-2.239-5-5s2.239-5 5-5h155.211c2.761 0 5 2.239 5 5s-2.239 5-5 5zm0 18.6c-2.761 0-5-2.239-5-5s2.239-5 5-5h155.211c2.761 0 5 2.239 5 5s-2.239 5-5 5z" fill="#a3a3cc"/><path d="m66.765 353.968c-1.37-2.395-.539-5.447 1.856-6.816s5.446-.539 6.816 1.856l4.454 7.773 18.701-18.701c1.952-1.952 5.118-1.952 7.07 0s1.952 5.118 0 7.07l-23.321 23.321-.002-.003c-.307.306-.658.578-1.052.803-2.394 1.37-5.446.539-6.816-1.856l-7.705-13.448z" fill="#4eb1fc"/><path d="m125.752 348.975c-2.761 0-5-2.239-5-5s2.239-5 5-5h155.211c2.761 0 5 2.239 5 5s-2.239 5-5 5zm0 18.6c-2.761 0-5-2.239-5-5s2.239-5 5-5h155.211c2.761 0 5 2.239 5 5s-2.239 5-5 5z" fill="#a3a3cc"/></g><g><path d="m193.848 151.905 18.415 7.638 14.734-9.881 20.368 20.368-9.881 14.734 7.638 18.415 17.394 3.429v28.804l-17.394 3.43-7.638 18.415 9.881 14.734-20.368 20.367-14.734-9.881-18.415 7.639-3.43 17.394h-28.803l-3.43-17.394-18.415-7.639-14.734 9.881-20.368-20.367 9.881-14.734-7.638-18.415-17.394-3.43v-28.804l17.394-3.429 7.638-18.415-9.881-14.734 20.368-20.368 14.734 9.881 18.415-7.638 3.43-17.394h28.803z" fill="#f9ac00" fill-rule="evenodd"/><path d="m193.848 151.905 6.89 2.857.116.049 11.409 4.732.008-.006 3.912 1.62 13.354-8.955 17.828 17.828-9.881 14.734 7.638 18.414 17.394 3.43v28.804l-17.394 3.43-7.638 18.415 9.881 14.734-17.828 17.828-13.354-8.955-3.911 1.619-.009-.006-18.415 7.639-3.43 17.394h-24.3l-3.592-18.217-20.338-8.437-2.418 1.621-10.947 7.342-17.828-17.828 9.881-14.734-9.185-22.205-15.848-3.124v-10.917-10.917l15.848-3.125 9.185-22.205-9.881-14.734 17.828-17.828 13.365 8.963 20.338-8.436 3.592-18.218h24.3z" fill="#fdc72e" fill-rule="evenodd"/><circle cx="181.597" cy="221.01" fill="#f9ac00" r="44.282"/><circle cx="176.017" cy="221.01" fill="#f3f3ff" r="44.282" transform="matrix(.579 -.815 .815 .579 -106.098 236.461)"/></g><path d="m150.184 220.916c-1.37-2.394-.539-5.447 1.856-6.816s5.446-.539 6.816 1.855l7.433 12.974 27.72-27.72c1.952-1.952 5.118-1.952 7.07 0s1.952 5.118 0 7.07l-32.34 32.34-.002-.003c-.307.307-.658.578-1.052.803-2.394 1.37-5.446.539-6.816-1.856l-10.684-18.649z" fill="#4eb1fc" fill-rule="evenodd"/><g><path d="m403.218 366.733h26.169v60.675h-26.169z" fill="#7986bf" transform="matrix(.707 -.707 .707 .707 -158.839 410.67)"/><path d="m405.74 372.822h8.946v60.675h-8.946z" fill="#6a75ad" transform="matrix(.707 -.707 .707 .707 -164.928 408.142)"/><circle cx="328.954" cy="309.722" fill="#2a92fa" r="110.871" transform="matrix(.707 -.707 .707 .707 -122.658 323.321)"/><g fill-rule="evenodd"><path d="m331.678 198.885c59.974 1.446 108.147 50.515 108.147 110.837s-48.173 109.39-108.147 110.837c-59.974-1.446-108.147-50.515-108.147-110.837s48.174-109.39 108.147-110.837zm2.724 26.134c-.912 0-1.819.02-2.724.048-.905-.029-1.812-.048-2.724-.048-46.78 0-84.703 37.923-84.703 84.703s37.923 84.703 84.703 84.703c.912 0 1.819-.02 2.724-.048.905.029 1.812.048 2.724.048 46.78 0 84.703-37.923 84.703-84.703s-37.923-84.703-84.703-84.703z" fill="#4eb1fc"/><path d="m495.609 449.835-50.57-50.57c-3.526-3.526-9.278-3.526-12.804 0l-13.736 13.736c-3.526 3.526-3.526 9.278 0 12.804l50.57 50.57c7.299 7.299 19.241 7.299 26.54 0s7.299-19.241 0-26.54z" fill="#3d4a75"/><path d="m422.439 409.06-3.942 3.942c-3.526 3.526-3.526 9.278 0 12.804l50.57 50.57c6.294 6.294 16.041 7.16 23.286 2.599l-69.915-69.915z" fill="#323e66"/></g><circle cx="328.954" cy="309.722" fill="#f3f3ff" r="84.703" transform="matrix(.707 -.707 .707 .707 -122.658 323.321)"/></g></svg>