<svg enable-background="new 0 0 520 520" height="512" viewBox="0 0 520 520" width="512" xmlns="http://www.w3.org/2000/svg"><g id="_x38_1_x2C__Data_x2C__File_x2C__Fire_x2C__Document_Loss"><g><path d="m407.5 435h-5c0-91.97 0-279.3 0-300-18.55-18.55-41.45-41.45-60-60h-170v-35h275v395z" fill="#bce4ff"/><path d="m101.5 455c0-.166 0-379.866 0-380h241v60h60v320c-12.38 0-287.251 0-301 0z" fill="#d0dce7"/><path d="m101.5 455h1 300v30h-301z" fill="#a0b5c5"/><path d="m472.5 445c8.28 0 15 6.72 15 15s-6.72 15-15 15c-8.29 0-15-6.72-15-15s6.71-15 15-15z" fill="#d94556"/><path d="m57.5 35c13.81 0 25 11.19 25 25s-11.19 25-25 25-25-11.19-25-25 11.19-25 25-25z" fill="#d94556"/><path d="m149.02 333.4c0 15.699-12.73 28.43-28.43 28.43s-28.43-12.73-28.43-28.43c0-18.37 17.13-24.62 28.43-40.12 11.31 15.5 28.43 21.75 28.43 40.12z" fill="#f88f19"/><path d="m92.16 333.4c0 15.699 12.73 28.43 28.43 28.43s28.43-12.73 28.43-28.43c0-18.37-17.12-24.62-28.43-40.12-11.3 15.5-28.43 21.75-28.43 40.12zm9.34 26.3c-33.9-8.51-59-39.2-59-75.74 0-21.76 8.75-37.33 21.18-51.41 7.06 19.87 20.27 38.24 44.99 34.97-2.68-8.05-4.71-15.709-6.21-22.95-1.91-9.23-2.2-18.62-.96-27.77 1.94-14.34 7.62-28.09 16.64-39.79.83-1.07 1.64-2.16 2.45-3.26 31.06 42.58 78.09 59.72 78.09 110.21 0 43.13-34.96 78.1-78.09 78.1-6.58 0-12.98-.82-19.09-2.36z" fill="#ffd400"/><path d="m342.5 75c18.55 18.55 41.45 41.45 60 60h-60z" fill="#a0b5c5"/><circle cx="475" cy="82.5" r="7.5"/><circle cx="475" cy="382.5" r="7.5"/><circle cx="70" cy="407.5" r="7.5"/><circle cx="65" cy="132.5" r="7.5"/><path d="m402.5 140h-60c-2.762 0-5-2.239-5-5v-60c0-2.761 2.238-5 5-5s5 2.239 5 5v55h55c2.762 0 5 2.239 5 5s-2.238 5-5 5z"/><path d="m447.5 440h-40c-2.762 0-5-2.238-5-5s2.238-5 5-5h35v-385h-265v30c0 2.761-2.239 5-5 5s-5-2.239-5-5v-35c0-2.761 2.239-5 5-5h275c2.762 0 5 2.239 5 5v395c0 2.762-2.238 5-5 5z"/><path d="m402.5 460h-300c-2.761 0-5-2.238-5-5s2.239-5 5-5h300c2.762 0 5 2.238 5 5s-2.238 5-5 5z"/><path d="m372.5 370h-130c-2.761 0-5-2.238-5-5s2.239-5 5-5h130c2.762 0 5 2.238 5 5s-2.238 5-5 5z"/><path d="m372.5 345h-130c-2.761 0-5-2.238-5-5s2.239-5 5-5h130c2.762 0 5 2.238 5 5s-2.238 5-5 5z"/><path d="m372.5 320h-130c-2.761 0-5-2.238-5-5s2.239-5 5-5h130c2.762 0 5 2.238 5 5s-2.238 5-5 5z"/><path d="m372.5 295h-130c-2.761 0-5-2.238-5-5s2.239-5 5-5h130c2.762 0 5 2.238 5 5s-2.238 5-5 5z"/><path d="m372.5 270h-130c-2.761 0-5-2.238-5-5s2.239-5 5-5h130c2.762 0 5 2.238 5 5s-2.238 5-5 5z"/><path d="m372.5 245h-130c-2.761 0-5-2.239-5-5s2.239-5 5-5h130c2.762 0 5 2.239 5 5s-2.238 5-5 5z"/><path d="m372.5 220h-130c-2.761 0-5-2.239-5-5s2.239-5 5-5h130c2.762 0 5 2.239 5 5s-2.238 5-5 5z"/><path d="m282.5 115h-180c-2.761 0-5-2.239-5-5s2.239-5 5-5h180c2.762 0 5 2.239 5 5s-2.238 5-5 5z"/><path d="m57.5 90c-16.542 0-30-13.458-30-30s13.458-30 30-30 30 13.458 30 30-13.458 30-30 30zm0-50c-11.028 0-20 8.972-20 20s8.972 20 20 20 20-8.972 20-20-8.972-20-20-20z"/><path d="m472.5 480c-11.027 0-20-8.972-20-20s8.973-20 20-20 20 8.972 20 20-8.973 20-20 20zm0-30c-5.514 0-10 4.486-10 10s4.486 10 10 10 10-4.486 10-10-4.486-10-10-10z"/><path d="m402.5 490h-301c-2.761 0-5-2.238-5-5v-125.3c0-2.762 2.239-5 5-5s5 2.238 5 5v120.3h291v-342.929l-57.071-57.071h-233.929v136.8c0 2.761-2.239 5.045-5 5.045s-5-2.194-5-4.955v-141.89c0-2.761 2.239-5 5-5h241c1.326 0 2.598.527 3.535 1.464l60 60c.938.938 1.465 2.209 1.465 3.536v350c0 2.762-2.238 5-5 5z"/><path d="m120.59 366.83c-18.433 0-33.43-14.996-33.43-33.43 0-14.242 8.77-22.365 17.25-30.22 4.2-3.891 8.542-7.913 12.139-12.846.941-1.291 2.442-2.055 4.04-2.055h.001c1.597 0 3.098.763 4.039 2.053 3.598 4.931 7.939 8.951 12.137 12.84 8.483 7.857 17.254 15.981 17.254 30.228 0 18.434-14.997 33.43-33.43 33.43zm.001-65.619c-3.113 3.496-6.387 6.529-9.385 9.306-7.848 7.269-14.046 13.01-14.046 22.884 0 12.919 10.511 23.43 23.43 23.43s23.43-10.511 23.43-23.43c0-9.878-6.2-15.62-14.05-22.891-2.995-2.776-6.267-5.806-9.379-9.299z"/><path d="m120.59 367.06c-6.868 0-13.702-.845-20.312-2.511-36.961-9.278-62.778-42.418-62.778-80.589 0-20.271 6.918-37.146 22.432-54.719 1.172-1.327 2.96-1.936 4.697-1.6 1.739.336 3.17 1.566 3.763 3.235 7.369 20.739 18.659 31.5 33.567 32.005-1.741-5.802-3.214-11.597-4.395-17.297-2.009-9.708-2.352-19.617-1.019-29.456 2.071-15.31 8.169-29.893 17.635-42.171.814-1.049 1.598-2.105 2.383-3.17.942-1.281 2.438-2.037 4.027-2.037h.011c1.593.003 3.09.766 4.029 2.053 10.382 14.232 22.622 25.568 34.46 36.53 22.931 21.235 44.591 41.293 44.591 76.626-.001 45.822-37.275 83.101-83.091 83.101zm-58.396-124.847c-10.238 13.425-14.694 26.274-14.694 41.747 0 33.578 22.706 62.729 55.217 70.891 5.817 1.466 11.829 2.209 17.873 2.209 40.302 0 73.09-32.792 73.09-73.1 0-30.965-19.179-48.725-41.385-69.29-10.703-9.912-21.727-20.12-31.672-32.629-7.553 10.458-12.44 22.659-14.168 35.429-1.181 8.715-.877 17.491.901 26.086 1.524 7.355 3.562 14.887 6.058 22.384.471 1.415.286 2.966-.505 4.23-.791 1.265-2.105 2.109-3.583 2.306-2.122.28-4.229.423-6.262.423-17.652 0-31.66-10.566-40.87-30.686z"/><path d="m166.97 286.58c-2.761 0-5-2.238-5-5 0-20.741-13.032-32.809-28.121-46.782-1.512-1.4-3.04-2.814-4.572-4.254-2.013-1.891-2.112-5.055-.222-7.067 1.89-2.013 5.055-2.113 7.067-.222 1.515 1.423 3.025 2.821 4.521 4.206 16.11 14.918 31.327 29.008 31.327 54.119 0 2.762-2.239 5-5 5z"/></g></g></svg>