<svg id="line" height="512" viewBox="0 0 64 64" width="512" xmlns="http://www.w3.org/2000/svg"><path d="m22.67083 9.46975a1.02369 1.02369 0 0 0 -.00006-2.04716h-2.65985a1.02332 1.02332 0 0 0 -1.02358 1.02358v6.48634a1.02331 1.02331 0 0 0 1.02358 1.02358h2.65991a1.02368 1.02368 0 0 0 -.00006-2.04716h-1.63627v-1.19651h1.63633a1.02369 1.02369 0 0 0 -.00006-2.04716h-1.63627v-1.19551z"/><path d="m37.28833 14.9445.07747-6.48633a1.02376 1.02376 0 0 0 -2.04716-.024l-.07747 6.48629a1.02376 1.02376 0 0 0 2.04716.02404z"/><path d="m42.68161 15.88512a1.02331 1.02331 0 0 0 1.02358-1.02358v-5.41878h1.35095a1.02358 1.02358 0 1 0 0-2.04715h-4.74855a1.02358 1.02358 0 1 0 0 2.04715h1.35041v5.41878a1.02331 1.02331 0 0 0 1.02361 1.02358z"/><path d="m25.6746 15.67421a1.02384 1.02384 0 0 0 1.4474-.026l2.33611-2.4242 2.304 2.45718a1.0233 1.0233 0 1 0 1.49338-1.39942l-2.3754-2.53334 2.40791-2.49859a1.024 1.024 0 0 0 -1.47439-1.42141l-2.33611 2.42419-2.304-2.45718a1.0233 1.0233 0 1 0 -1.4934 1.39943l2.3754 2.53333-2.40789 2.4986a1.02337 1.02337 0 0 0 .02699 1.44741z"/><path d="m52.707 24.31766a1.02331 1.02331 0 0 0 1.02357-1.02358v-3.02976c0-1.4797-1.62714-2.57513-3.94088-2.74843v-10.41416a3.10171 3.10171 0 0 0 -3.10169-3.10173h-23.29646a1.02368 1.02368 0 0 0 0 2.04716h23.29693a1.05408 1.05408 0 0 1 1.05406 1.05407v10.37923c-7.858.002-23.6286-.00143-31.48513 0l.00007-10.37873c.1463-2.27047 3.91651.15151 4.06333-2.07815a1.02331 1.02331 0 0 0 -1.02358-1.02358h-1.98569a3.10122 3.10122 0 0 0 -3.10122 3.10123v10.41466c-2.31374.1733-3.94088 1.26873-3.94088 2.74843v36.95182c0 1.61334 1.9242 2.78386 4.57562 2.78386h34.30995c2.65142 0 4.57562-1.17052 4.57562-2.78386v-29.82775a1.02358 1.02358 0 1 0 -2.04715 0l.00468 28.02193a2.54212 2.54212 0 0 1 -2.53315 2.54252h-16.13142v-38.42522l16.17811.00013a2.49059 2.49059 0 0 1 2.48173 2.49054v1.27579a1.02331 1.02331 0 0 0 1.02358 1.02358zm-21.73058 33.63518c-.04692-.00019-16.135.00036-16.178-.00019a2.55391 2.55391 0 0 1 -2.48211-2.58312l-.005-33.25222a2.605 2.605 0 0 1 2.92257-2.58963l15.74251-.00006z"/><path d="m34.47986 38.73817a1.02369 1.02369 0 0 0 2.04716-.00006 1.02369 1.02369 0 0 0 -2.04716.00006z"/><path d="m28.49656 39.76175a1.02369 1.02369 0 0 0 -.00006-2.04716 1.02369 1.02369 0 0 0 .00006 2.04716z"/></svg>