<svg id="Solid" height="512" viewBox="0 0 64 64" width="512" xmlns="http://www.w3.org/2000/svg"><path d="m57 26h-50a3 3 0 0 0 -3 3v26a3 3 0 0 0 3 3h50a3 3 0 0 0 3-3v-26a3 3 0 0 0 -3-3zm0 28a1 1 0 0 1 -1 1h-48a1 1 0 0 1 -1-1v-24a1 1 0 0 1 1-1h48a1 1 0 0 1 1 1z"/><path d="m9 53h46v-22h-46zm33-19h8a1 1 0 0 1 0 2h-3v13a1 1 0 0 1 -2 0v-13h-3a1 1 0 0 1 0-2zm-5 1a1 1 0 0 1 2 0v14a1 1 0 0 1 -2 0zm-11.868.5a1 1 0 0 1 1.736-.992l3.132 5.477 3.132-5.485a1 1 0 0 1 1.736.992l-3.716 6.508 3.716 6.5a1 1 0 0 1 -1.736.992l-3.132-5.477-3.132 5.485a1 1 0 0 1 -1.736-.992l3.716-6.508zm-12.132-.5a1 1 0 0 1 1-1h8a1 1 0 0 1 0 2h-7v5h5a1 1 0 0 1 0 2h-5v5h7a1 1 0 0 1 0 2h-8a1 1 0 0 1 -1-1z"/><rect height="4" rx="1" width="60" x="2" y="6"/><path d="m50 12h4v7h-4z"/><path d="m10 12h4v7h-4z"/><path d="m56 23a2 2 0 0 0 -2-2h-4a2 2 0 0 0 -2 2v1h8z"/><path d="m16 23a2 2 0 0 0 -2-2h-4a2 2 0 0 0 -2 2v1h8z"/></svg>