<svg id="_x33_0" enable-background="new 0 0 62 62.414" height="512" viewBox="0 0 62 62.414" width="512" xmlns="http://www.w3.org/2000/svg"><g><path d="m56.752 7.659-1.504-1.318-6.297 7.196-2.244-2.244-1.414 1.414 3.756 3.756z"/><path d="m60 50v-32.695c1.256-1.787 2-3.959 2-6.305 0-6.065-4.935-11-11-11-2.346 0-4.517.744-6.305 2h-44.695v50h30.439c.607 2.122 1.841 4.035 3.561 5.461v4.539h18v-4.78c1.092-2.255 1.751-4.72 1.938-7.22zm-6-2v-11c0-1.654-1.346-3-3-3-.352 0-.686.072-1 .184v-1.184c0-.352-.072-.686-.184-1h2.184v-10.051c2.267-.206 4.339-1.097 6-2.471v28.522zm-12-18v-3c0-1.654-1.346-3-3-3-.352 0-.686.072-1 .184v-2.184h12v8zm18-19c0 4.962-4.038 9-9 9s-9-4.038-9-9 4.038-9 9-9 9 4.038 9 9zm-18.786 5h-3.214v-8h2.426c-.271.955-.426 1.959-.426 3 0 1.801.444 3.498 1.214 5zm-39.214 34v-46h40.521c-.507.613-.941 1.286-1.307 2h-5.214v12h6.521c.63.761 1.364 1.431 2.174 2h-8.695v21.917c0 .086-.151.099-.165.015l-.293-1.76c-.402-2.418-2.473-4.172-4.924-4.172-1.444 0-2.618 1.175-2.618 2.677 0 .343.064.678.214 1.052 1.185 2.962 1.786 6.082 1.786 9.271 0 .336.029.668.059 1zm48 10h-14v-2h14zm2-11.472c0 2.567-.569 5.136-1.638 7.472h-14.998c-2.106-1.699-3.364-4.286-3.364-7 0-3.444-.649-6.813-1.952-10.073-.032-.079-.048-.163-.048-.309 0-.341.277-.618.618-.618 1.469 0 2.71 1.052 2.952 2.5l.293 1.76c.168 1.009 1.032 1.74 2.055 1.74 1.148 0 2.082-.935 2.082-2.083v-14.917c0-.551.449-1 1-1s1 .449 1 1v15h2v-9c0-.552.449-1 1-1s1 .448 1 1v9h2v-9c0-.552.449-1 1-1s1 .448 1 1v9h2v-5c0-.552.449-1 1-1s1 .448 1 1z"/><path d="m34 6h-30v26h30zm-2 2v10h-6v-1c0-3.86-3.14-7-7-7s-7 3.14-7 7v1h-6v-10zm-12 10h-2v-1c0-.551.449-1 1-1s1 .449 1 1zm-.184 2c-.414 1.161-1.514 2-2.816 2s-2.402-.839-2.816-2zm-2.816 4c2.414 0 4.434-1.721 4.899-4h2.101v1c0 2.757-2.243 5-5 5-1.892 0-3.542-1.056-4.391-2.609.711.388 1.526.609 2.391.609zm5-6v-1c0-1.654-1.346-3-3-3s-3 1.346-3 3v1h-2v-1c0-2.757 2.243-5 5-5s5 2.243 5 5v1zm-16 12v-10h6v1c0 3.86 3.14 7 7 7s7-3.14 7-7v-1h6v10z"/><path d="m4 40h6v-6h-6zm2-4h2v2h-2z"/><path d="m4 48h6v-6h-6zm2-4h2v2h-2z"/><path d="m12 40h6v-6h-6zm2-4h2v2h-2z"/><path d="m12 48h6v-6h-6zm2-4h2v2h-2z"/><path d="m20 40h6v-6h-6zm2-4h2v2h-2z"/><path d="m20 48h6v-6h-6zm2-4h2v2h-2z"/><path d="m20.293 54.293-5.293 5.293-1.293-1.293-1.414 1.414 2.707 2.707 6.707-6.707z"/><path d="m23 59.586-1.293-1.293-1.414 1.414 2.707 2.707 6.707-6.707-1.414-1.414z"/><path d="m0 57h2v2h-2z"/><path d="m4 57h2v2h-2z"/><path d="m8 57h2v2h-2z"/></g></svg>