<svg height="512pt" viewBox="-33 0 512 512" width="512pt" xmlns="http://www.w3.org/2000/svg"><path d="m339.953125 153.105469h22.125v-30h-22.125zm0 0"/><path d="m107.089844 123.105469h-22.125v30h22.125zm0 0"/><path d="m223.519531 0c-43.328125 0-81.199219 23.792969-101.246093 58.996094h202.496093c-20.050781-35.203125-57.921875-58.996094-101.25-58.996094zm0 0"/><path d="m83.105469 482.089844h-36.59375v29.910156h354.015625v-29.910156h-36.59375l-13.925782-25.996094h-252.972656zm0 0"/><path d="m339.953125 117.546875c0-9.449219-1.140625-18.636719-3.273437-27.4375h-226.316407c-2.136719 8.800781-3.273437 17.988281-3.273437 27.4375v5.558594h232.859375v-5.558594zm0 0"/><path d="m392.074219 319.585938v-20.257813h4.503906c27.660156 0 50.164063-22.503906 50.164063-50.164063 0-27.660156-22.503907-50.167968-50.164063-50.167968h-4.503906v-18.394532h-30v54.492188h-22.121094v-81.988281h-232.863281v81.988281h-22.425782v-54.492188h-30v18.394532h-4.5c-27.660156 0-50.164062 22.507812-50.164062 50.167968 0 27.660157 22.503906 50.164063 50.164062 50.164063h4.5v20.257813h30v-54.492188h22.425782v161h232.859375v-161h22.125v54.492188zm-203.988281 78.714843h-30v-216.726562h30zm50.003906 0h-30v-216.726562h30zm50.003906 0h-30v-216.726562h30zm0 0"/></svg>