<svg id="fireman-team" enable-background="new 0 0 300 300" height="512" viewBox="0 0 300 300" width="512" xmlns="http://www.w3.org/2000/svg"><g><circle cx="160" cy="160" fill="#ffe5bb" r="86"/><path d="m225.026 67c0 2.362-1.915 4.276-4.277 4.276s-4.276-1.915-4.276-4.276 1.915-4.276 4.276-4.276c2.363 0 4.277 1.914 4.277 4.276z" fill="#4c241d"/><path d="m226 194c0 2.209-1.791 4-4 4s-4-1.791-4-4 1.791-4 4-4 4 1.791 4 4z" fill="#4c241d"/><g><path d="m174 262h-44l4-83.6v-28.4h40v28.4z" fill="#e66353"/><path d="m174 266h-44c-1.094 0-2.141-.447-2.895-1.24-.756-.791-1.152-1.857-1.102-2.951l4-83.6-.003-28.209c0-2.209 1.791-4 4-4h40c2.209 0 4 1.791 4 4v112c0 2.209-1.791 4-4 4zm-39.805-8h35.805v-104h-32v24.4z" fill="#4c241d"/></g><g fill="#4c241d"><path d="m150 266c-2.209 0-4-1.791-4-4v-68c0-2.209 1.791-4 4-4s4 1.791 4 4v68c0 2.209-1.791 4-4 4z"/><path d="m246 222c-2.209 0-4-1.791-4-4v-16c0-2.209 1.791-4 4-4s4 1.791 4 4v16c0 2.209-1.791 4-4 4z"/><path d="m254 214h-16c-2.209 0-4-1.791-4-4s1.791-4 4-4h16c2.209 0 4 1.791 4 4s-1.791 4-4 4z"/></g><g><path d="m102 166h-48v-44.828c0-10.588 8.583-19.172 19.172-19.172h9.656c10.588 0 19.172 8.584 19.172 19.172z" fill="#e66353"/><path d="m102 170h-48c-2.209 0-4-1.791-4-4v-44.828c0-12.777 10.394-23.172 23.172-23.172h9.656c12.777 0 23.172 10.395 23.172 23.172v44.828c0 2.209-1.791 4-4 4zm-44-8h40v-40.828c0-8.365-6.807-15.172-15.172-15.172h-9.656c-8.366 0-15.172 6.807-15.172 15.172z" fill="#4c241d"/></g><g><path d="m166 102h-15.245c-9.254 0-16.755-7.502-16.755-16.755v-15.245h32z" fill="#ffded5"/><path d="m166 106h-15.244c-11.446 0-20.756-9.311-20.756-20.756v-15.244c0-2.209 1.791-4 4-4h32c2.209 0 4 1.791 4 4v32c0 2.209-1.791 4-4 4zm-28-32v11.244c0 7.033 5.722 12.756 12.756 12.756h11.244v-24z" fill="#4c241d"/></g><path d="m266 266h-224c-2.209 0-4-1.791-4-4s1.791-4 4-4h224c2.209 0 4 1.791 4 4s-1.791 4-4 4z" fill="#4c241d"/><g><path d="m178 166h-48v-44.828c0-10.588 8.584-19.172 19.172-19.172h9.656c10.588 0 19.172 8.584 19.172 19.172z" fill="#e66353"/><path d="m178 170h-48c-2.209 0-4-1.791-4-4v-44.828c0-12.777 10.394-23.172 23.172-23.172h9.656c12.777 0 23.172 10.395 23.172 23.172v44.828c0 2.209-1.791 4-4 4zm-44-8h40v-40.828c0-8.365-6.807-15.172-15.172-15.172h-9.656c-8.365 0-15.172 6.807-15.172 15.172z" fill="#4c241d"/></g><g><path d="m34 114h196v16h-196" fill="#6b4f5b"/><path d="m230 134h-196c-2.209 0-4-1.791-4-4s1.791-4 4-4h192v-8h-192c-2.209 0-4-1.791-4-4s1.791-4 4-4h196c2.209 0 4 1.791 4 4v16c0 2.209-1.791 4-4 4z" fill="#4c241d"/></g><g><path d="m198 150h-8v-20h8c4.418 0 8 3.582 8 8v4c0 4.418-3.582 8-8 8z" fill="#ffce56"/><path d="m198 154h-8c-2.209 0-4-1.791-4-4v-20c0-2.209 1.791-4 4-4h8c6.617 0 12 5.383 12 12v4c0 6.617-5.383 12-12 12zm-4-8h4c2.205 0 4-1.795 4-4v-4c0-2.205-1.795-4-4-4h-4z" fill="#4c241d"/></g><g><path d="m122 150h-8v-20h8c4.418 0 8 3.582 8 8v4c0 4.418-3.582 8-8 8z" fill="#ffce56"/><path d="m122 154h-8c-2.209 0-4-1.791-4-4v-20c0-2.209 1.791-4 4-4h8c6.617 0 12 5.383 12 12v4c0 6.617-5.383 12-12 12zm-4-8h4c2.205 0 4-1.795 4-4v-4c0-2.205-1.795-4-4-4h-4z" fill="#4c241d"/></g><g><path d="m122 58h60v12h-60z" fill="#e66353"/><path d="m182 74h-60c-2.209 0-4-1.791-4-4v-12c0-2.209 1.791-4 4-4h60c2.209 0 4 1.791 4 4v12c0 2.209-1.791 4-4 4zm-56-8h52v-4h-52z" fill="#4c241d"/></g><g><path d="m98 178.4v83.6h-44l4-83.6z" fill="#e66353"/><path d="m98 266h-44c-1.094 0-2.141-.447-2.895-1.24-.756-.791-1.152-1.857-1.102-2.951l4-83.6c.104-2.133 1.861-3.809 3.996-3.809h40c2.209 0 4 1.791 4 4v83.6c.001 2.209-1.79 4-3.999 4zm-39.805-8h35.805v-75.6h-32.188z" fill="#4c241d"/></g><g><path d="m166 58h-36v-8.283c0-6.471 5.245-11.717 11.716-11.717h12.567c6.471 0 11.717 5.246 11.717 11.717z" fill="#e66353"/><path d="m166 62h-36c-2.209 0-4-1.791-4-4v-8.283c0-8.666 7.05-15.717 15.716-15.717h12.566c8.667 0 15.718 7.051 15.718 15.717v8.283c0 2.209-1.791 4-4 4zm-32-8h28v-4.283c0-4.256-3.461-7.717-7.717-7.717h-12.566c-4.256 0-7.717 3.461-7.717 7.717z" fill="#4c241d"/></g><g><path d="m130 166h48v12h-48z" fill="#ffce56"/><path d="m178 182h-48c-2.209 0-4-1.791-4-4v-12c0-2.209 1.791-4 4-4h48c2.209 0 4 1.791 4 4v12c0 2.209-1.791 4-4 4zm-44-8h40v-4h-40z" fill="#4c241d"/></g><g><path d="m266 142-36-4v-32l36-16" fill="#9dc1e4"/><path d="m266.006 146c-.148 0-.297-.008-.447-.025l-36-4c-2.026-.225-3.559-1.936-3.559-3.975v-32c0-1.58.932-3.014 2.375-3.654l36-16c2.021-.91 4.383.01 5.279 2.029.898 2.02-.012 4.383-2.029 5.279l-33.625 14.946v25.82l32.441 3.605c2.195.242 3.777 2.221 3.533 4.416-.226 2.045-1.959 3.559-3.968 3.559z" fill="#4c241d"/></g><g><path d="m162 130v-18c0-5.523-4.477-10-10-10-5.523 0-10 4.477-10 10v30.943c0 3.897 3.159 7.057 7.057 7.057h40.943v-20z" fill="#e66353"/><path d="m190 154h-40.943c-6.096 0-11.057-4.961-11.057-11.057v-30.943c0-7.719 6.281-14 14-14s14 6.281 14 14v14h24c2.209 0 4 1.791 4 4v20c0 2.209-1.791 4-4 4zm-38-48c-3.309 0-6 2.691-6 6v30.943c0 1.686 1.371 3.057 3.057 3.057h36.943v-12h-24c-2.209 0-4-1.791-4-4v-18c0-3.309-2.692-6-6-6z" fill="#4c241d"/></g><path d="m74 266c-2.209 0-4-1.791-4-4v-68c0-2.209 1.791-4 4-4s4 1.791 4 4v68c0 2.209-1.791 4-4 4z" fill="#4c241d"/><g><path d="m90 102h-15.245c-9.254 0-16.755-7.502-16.755-16.755v-15.245h32z" fill="#ffded5"/><path d="m90 106h-15.244c-11.446 0-20.756-9.311-20.756-20.756v-15.244c0-2.209 1.791-4 4-4h32c2.209 0 4 1.791 4 4v32c0 2.209-1.791 4-4 4zm-28-32v11.244c0 7.033 5.722 12.756 12.756 12.756h11.244v-24z" fill="#4c241d"/></g><g><path d="m46 58h60v12h-60z" fill="#e66353"/><path d="m106 74h-60c-2.209 0-4-1.791-4-4v-12c0-2.209 1.791-4 4-4h60c2.209 0 4 1.791 4 4v12c0 2.209-1.791 4-4 4zm-56-8h52v-4h-52z" fill="#4c241d"/></g><g><path d="m90 58h-36v-8.283c0-6.471 5.245-11.717 11.716-11.717h12.567c6.471 0 11.717 5.246 11.717 11.717z" fill="#e66353"/><path d="m90 62h-36c-2.209 0-4-1.791-4-4v-8.283c0-8.666 7.05-15.717 15.716-15.717h12.566c8.667 0 15.718 7.051 15.718 15.717v8.283c0 2.209-1.791 4-4 4zm-32-8h28v-4.283c0-4.256-3.461-7.717-7.717-7.717h-12.567c-4.255 0-7.716 3.461-7.716 7.717z" fill="#4c241d"/></g><g><path d="m54 166h48v12h-48z" fill="#ffce56"/><path d="m102 182h-48c-2.209 0-4-1.791-4-4v-12c0-2.209 1.791-4 4-4h48c2.209 0 4 1.791 4 4v12c0 2.209-1.791 4-4 4zm-44-8h40v-4h-40z" fill="#4c241d"/></g><g><path d="m86 130v-18c0-5.523-4.477-10-10-10-5.523 0-10 4.477-10 10v30.943c0 3.897 3.159 7.057 7.057 7.057h40.943v-20z" fill="#e66353"/><path d="m114 154h-40.944c-6.095 0-11.056-4.961-11.056-11.057v-30.943c0-7.719 6.281-14 14-14s14 6.281 14 14v14h24c2.209 0 4 1.791 4 4v20c0 2.209-1.791 4-4 4zm-38-48c-3.309 0-6 2.691-6 6v30.943c0 1.686 1.371 3.057 3.057 3.057h36.943v-12h-24c-2.209 0-4-1.791-4-4v-18c0-3.309-2.692-6-6-6z" fill="#4c241d"/></g></g></svg>