<svg id="b" height="512" viewBox="0 0 24 24" width="512" xmlns="http://www.w3.org/2000/svg" data-name="ICON"><circle cx="12" cy="5" r="1"/><path d="m13.41992 3.29248c.19336 0 .37695-.11279.45898-.30127.10938-.25342-.00684-.54785-.25977-.65771-1.0293-.44531-2.20898-.44531-3.23828 0-.25293.10986-.36914.4043-.25977.65771.11035.25293.40332.36963.6582.26025.77539-.33691 1.66602-.33691 2.44141 0 .06543.02783.13281.04102.19922.04102z"/><path d="m9.43359 1.57422c1.60742-.76172 3.52539-.76172 5.13281 0 .24302.11734.5469.01445.66602-.2373.11816-.24951.01172-.54785-.23828-.66602-1.875-.88965-4.11328-.88965-5.98828 0-.25.11816-.35645.4165-.23828.66602.11914.25.41992.35303.66602.2373z"/><path d="m21.5 8h-19c-1.37891 0-2.5 1.12158-2.5 2.5v11c0 1.37842 1.12109 2.5 2.5 2.5h19c1.37891 0 2.5-1.12158 2.5-2.5v-11c0-1.37842-1.12109-2.5-2.5-2.5zm1.5 13.5c0 .82715-.67285 1.5-1.5 1.5h-19c-.82715 0-1.5-.67285-1.5-1.5v-11c0-.82715.67285-1.5 1.5-1.5h19c.82715 0 1.5.67285 1.5 1.5z"/><path d="m10.5 11h-7c-.27637 0-.5.22363-.5.5v9c0 .27637.22363.5.5.5h7c.27637 0 .5-.22363.5-.5v-9c0-.27637-.22363-.5-.5-.5zm-.5 1v6.28027c-.53198-.47974-1.22888-.78027-2-.78027h-2c-.77112 0-1.46802.30054-2 .78027v-6.28027zm-5.93652 8c.22266-.86182 1.00586-1.5 1.93652-1.5h2c.93066 0 1.71387.63818 1.93652 1.5z"/><path d="m7 16.5c.96484 0 1.75-.78516 1.75-1.75s-.78516-1.75-1.75-1.75-1.75.78516-1.75 1.75.78516 1.75 1.75 1.75zm0-2.5c.41309 0 .75.33643.75.75s-.33691.75-.75.75-.75-.33643-.75-.75.33691-.75.75-.75z"/><path d="m19 17h-2c-1.10254 0-2 .89697-2 2s.89746 2 2 2h2c1.10254 0 2-.89697 2-2s-.89746-2-2-2zm0 3h-2c-.55176 0-1-.44873-1-1s.44824-1 1-1h2c.55176 0 1 .44873 1 1s-.44824 1-1 1z"/><path d="m13.5 12h1c.27637 0 .5-.22363.5-.5s-.22363-.5-.5-.5h-1c-.27637 0-.5.22363-.5.5s.22363.5.5.5z"/><path d="m16.5 12h1c.27637 0 .5-.22363.5-.5s-.22363-.5-.5-.5h-1c-.27637 0-.5.22363-.5.5s.22363.5.5.5z"/><path d="m20.5 11h-1c-.27637 0-.5.22363-.5.5s.22363.5.5.5h1c.27637 0 .5-.22363.5-.5s-.22363-.5-.5-.5z"/><path d="m13.5 14h1c.27637 0 .5-.22363.5-.5s-.22363-.5-.5-.5h-1c-.27637 0-.5.22363-.5.5s.22363.5.5.5z"/><path d="m16.5 14h1c.27637 0 .5-.22363.5-.5s-.22363-.5-.5-.5h-1c-.27637 0-.5.22363-.5.5s.22363.5.5.5z"/><path d="m20.5 13h-1c-.27637 0-.5.22363-.5.5s.22363.5.5.5h1c.27637 0 .5-.22363.5-.5s-.22363-.5-.5-.5z"/><path d="m14.5 15h-1c-.27637 0-.5.22363-.5.5s.22363.5.5.5h1c.27637 0 .5-.22363.5-.5s-.22363-.5-.5-.5z"/><path d="m16.5 16h1c.27637 0 .5-.22363.5-.5s-.22363-.5-.5-.5h-1c-.27637 0-.5.22363-.5.5s.22363.5.5.5z"/><path d="m20.5 15h-1c-.27637 0-.5.22363-.5.5s.22363.5.5.5h1c.27637 0 .5-.22363.5-.5s-.22363-.5-.5-.5z"/></svg>