<svg id="Layer_1" height="512" viewBox="0 0 256 256" width="512" xmlns="http://www.w3.org/2000/svg"><g><g><path d="m251.415 151.645v96.69h-182.57l-3.57-96.69z" fill="#72c2e9"/></g><g><path d="m241.415 240.835h-49.56c-1.381 0-2.5-1.119-2.5-2.5s1.119-2.5 2.5-2.5h47.06v-74.19c0-1.381 1.119-2.5 2.5-2.5s2.5 1.119 2.5 2.5v76.69c0 1.381-1.119 2.5-2.5 2.5z" fill="#c4e4fd"/></g><g><path d="m132.285 240.835h-40.8c-1.381 0-2.5-1.119-2.5-2.5s1.119-2.5 2.5-2.5h40.8c1.381 0 2.5 1.119 2.5 2.5s-1.119 2.5-2.5 2.5zm-50.8 0h-3c-1.381 0-2.5-1.119-2.5-2.5s1.119-2.5 2.5-2.5h3c1.381 0 2.5 1.119 2.5 2.5s-1.119 2.5-2.5 2.5z" fill="#c4e4fd"/></g><g><path d="m75.845 248.335h-7l-3.57-96.69h7c.015.403 3.57 96.288 3.57 96.69z" fill="#4ba5c8"/></g><g><path d="m132.289 206.676h59.563v41.663h-59.563z" fill="#f0c020"/></g><g><path d="m191.855 240.835h-59.57c-1.381 0-2.5-1.119-2.5-2.5s1.119-2.5 2.5-2.5h59.57c1.381 0 2.5 1.119 2.5 2.5s-1.119 2.5-2.5 2.5z" fill="#f7e4b0"/></g><g><path d="m111.805 120.225v31.42h-46.54l6.84-4.62z" fill="#f0c020"/></g><g><path d="m72.275 151.645h-7.01l6.84-4.62z" fill="#e8a61e"/></g><g><path d="m158.342 151.644h-46.536l46.536-31.419z" fill="#f0c020"/></g><g><path d="m204.879 151.644h-46.537l46.537-31.419z" fill="#f0c020"/></g><g><path d="m251.415 151.644h-46.536l46.536-31.419z" fill="#f0c020"/></g><g><path d="m132.289 170.221h19.854v19.854h-19.854z" fill="#efefef"/></g><g><path d="m171.998 170.221h19.854v19.854h-19.854z" fill="#efefef"/></g><g><path d="m194.635 41.945c0 8.8-7.99 14.69-15.8 13.37-2.84-.48-5.57 1.03-6.7 3.68-6.41 15.09-26.96 19.83-39.24 7.22-8.63-8.86-22.58-7.12-29.98 1.4-9.79 11.28-28.32 6.86-31.92-7.63-2.906-11.725-21.29-9.983-21.29 6.27v29.82h-22.98v-29.91c0-3.95-1.56-7.69-4.15-10.67-14.246-16.417 3.57-40.988 23.47-32.71 2.43 1.01 5.28.23 6.88-1.87 6.97-9.12 20.42-10.33 28.96-3.02 2.51 2.15 6.31 1.67 8.42-.87 12.28-14.8 37.06-11.56 44.88 6.29 1.26 2.88 4.46 4.3 7.45 3.33 7.04-2.3 14.81-1.2 20.94 2.97 3.25 2.2 7.41 2.42 10.82.49 8.26-4.68 20.24.7 20.24 11.84z" fill="#efefef"/></g><g><g><path d="m86.1 113.777c-1.175-5.068-1.952-8.416-8.821-10.686-2.284-.754-2.279-3.995 0-4.748 3.987-1.317 6.868-2.269 8.821-10.686.597-2.566 4.272-2.573 4.871 0 2 8.617 5 9.425 8.821 10.687 2.284.754 2.279 3.994 0 4.747-3.988 1.318-6.869 2.271-8.821 10.686-.598 2.578-4.274 2.578-4.871 0z"/></g><g><g><path d="m92.915 100.74c-1.63 1.1-3.09 2.61-4.32 4.89-.99-1.76-2.41-3.42-4.57-4.85 1.72-1.13 3.24-2.69 4.52-5.1 1.3 2.45 2.81 4 4.37 5.06z" fill="#f0c020"/></g></g></g><g><path d="m39.705 83.032c-1.381 0-2.5-1.119-2.5-2.5v-3c0-1.381 1.119-2.5 2.5-2.5s2.5 1.119 2.5 2.5v3c0 1.381-1.119 2.5-2.5 2.5zm0-13c-1.381 0-2.5-1.119-2.5-2.5v-1.276c0-12.958 8.944-26.36 23.913-26.36 10.633 0 19.478 6.863 22.009 17.078 1.165 4.69 7.181 6.097 10.351 2.446 12.483-14.374 34.891-15.766 48.373-1.924 6.04 6.201 15.855 3.498 18.785-3.401 3.39-7.946 11.726-12.553 20.284-11.104 1.361.23 2.278 1.521 2.047 2.882-.23 1.361-1.516 2.279-2.882 2.047-6.312-1.067-12.381 2.35-14.848 8.132-4.302 10.13-18.407 13.719-26.968 4.931-11.41-11.714-30.424-10.48-41.015 1.714-5.861 6.75-16.858 4.014-18.979-4.52-2-8.069-8.734-13.282-17.156-13.282-11.838 0-18.913 10.86-18.913 21.36v1.276c-.001 1.382-1.12 2.501-2.501 2.501z" fill="#fff"/></g><g><path d="m26.725 89.075h22.98v7h-22.98z" fill="#afafaf"/></g><g><path d="m68.845 248.335h-61.26l4.24-114.72.77-20.67.514-13.98c.059-1.613 1.384-2.89 2.998-2.89h44.216c1.614 0 2.939 1.277 2.998 2.89l.514 13.98.77 20.67.67 18.03z" fill="#fc5d3d"/></g><g><path d="m55.971 238.427-.111-2.998c-.051-1.38 1.026-2.54 2.406-2.59 1.394-.062 2.54 1.026 2.59 2.406l.111 2.998c.051 1.38-1.026 2.54-2.406 2.591-1.412.044-2.54-1.051-2.59-2.407zm-.48-12.991-4.413-119.269c-.051-1.379 1.026-2.54 2.406-2.591 1.374-.044 2.54 1.026 2.591 2.406l4.413 119.269c.051 1.379-1.026 2.54-2.406 2.59-1.335.063-2.539-.994-2.591-2.405z" fill="#ffcac2"/></g><g><path d="m64.605 133.615h-52.78l.77-20.67h51.24z" fill="#efefef"/></g><g><path d="m54.594 136.115c-1.338 0-2.447-1.059-2.497-2.407l-.77-20.67c-.052-1.38 1.025-2.54 2.405-2.591 1.381-.058 2.54 1.026 2.591 2.405l.77 20.67c.052 1.38-1.025 2.54-2.405 2.591-.031.002-.063.002-.094.002z" fill="#fff"/></g><g><g><path d="m92.58 170.221h19.854v19.854h-19.854z" fill="#efefef"/></g><g><path d="m211.706 170.221h19.854v19.854h-19.854z" fill="#efefef"/></g></g><g><g><path d="m92.58 206.676h19.854v19.854h-19.854z" fill="#efefef"/></g><g><path d="m211.706 206.676h19.854v19.854h-19.854z" fill="#efefef"/></g></g><g><path d="m132.289 192.575h19.854c1.381 0 2.5-1.119 2.5-2.5v-19.854c0-1.381-1.119-2.5-2.5-2.5h-19.854c-1.381 0-2.5 1.119-2.5 2.5v19.854c0 1.381 1.119 2.5 2.5 2.5zm2.5-19.854h14.854v14.854h-14.854z"/></g><g><path d="m171.998 192.575h19.854c1.381 0 2.5-1.119 2.5-2.5v-19.854c0-1.381-1.119-2.5-2.5-2.5h-19.854c-1.381 0-2.5 1.119-2.5 2.5v19.854c0 1.381 1.119 2.5 2.5 2.5zm2.5-19.854h14.854v14.854h-14.854z"/></g><g><path d="m90.08 170.221v19.854c0 1.381 1.119 2.5 2.5 2.5h19.854c1.381 0 2.5-1.119 2.5-2.5v-19.854c0-1.381-1.119-2.5-2.5-2.5h-19.854c-1.381 0-2.5 1.119-2.5 2.5zm5 2.5h14.854v14.854h-14.854z"/></g><g><path d="m211.706 192.575h19.854c1.381 0 2.5-1.119 2.5-2.5v-19.854c0-1.381-1.119-2.5-2.5-2.5h-19.854c-1.381 0-2.5 1.119-2.5 2.5v19.854c0 1.381 1.119 2.5 2.5 2.5zm2.5-19.854h14.854v14.854h-14.854z"/></g><g><path d="m112.434 204.176h-19.854c-1.381 0-2.5 1.119-2.5 2.5v19.854c0 1.381 1.119 2.5 2.5 2.5h19.854c1.381 0 2.5-1.119 2.5-2.5v-19.854c0-1.381-1.119-2.5-2.5-2.5zm-2.5 19.854h-14.854v-14.854h14.854z"/></g><g><path d="m211.706 229.03h19.854c1.381 0 2.5-1.119 2.5-2.5v-19.854c0-1.381-1.119-2.5-2.5-2.5h-19.854c-1.381 0-2.5 1.119-2.5 2.5v19.854c0 1.381 1.119 2.5 2.5 2.5zm2.5-19.854h14.854v14.854h-14.854z"/></g><g><circle cx="191.855" cy="225.885" r="2.5"/></g><g><path d="m133.165 134.205c-1.14.77-1.44 2.33-.67 3.47.8 1.174 2.363 1.425 3.47.67 1.151-.775 1.449-2.321.67-3.47-.74-1.1-2.36-1.42-3.47-.67z"/></g><g><path d="m110.905 10.165c1.463 0 2.52-1.158 2.53-2.47.02-1.38-1.09-2.51-2.47-2.53h-.03c-1.36 0-2.48 1.11-2.5 2.47-.01 1.38 1.1 2.52 2.47 2.53z"/></g><g><path d="m251.415 250.835c1.381 0 2.5-1.119 2.5-2.5 0-18.09 0-116.756 0-128.11 0-2.002-2.244-3.191-3.899-2.072l-42.637 28.787v-26.715c0-2.006-2.247-3.189-3.899-2.072l-42.635 28.785v-26.714c0-2.028-2.277-3.174-3.9-2.07l-15.49 10.45c-1.14.77-1.44 2.33-.67 3.47.74 1.11 2.36 1.43 3.47.68l.01-.01 11.58-7.82v24.22h-35.87l7.7-5.2c1.117-.738 1.471-2.296.68-3.47-.75-1.1-2.37-1.42-3.47-.68l-10.58 7.146v-26.716c0-1.999-2.239-3.191-3.899-2.072l-42.805 28.898c-2.969-80.273.411 11.111-1.782-48.179-.11-2.971-2.524-5.297-5.497-5.297h-8.118v-27.32c-.02-5.418 3.302-11.316 8.91-11.36 4.057 0 6.626 2.38 7.45 5.69 4.078 16.414 25.11 21.507 36.24 8.67 6.592-7.636 18.844-8.915 26.3-1.3 13.367 13.766 36.124 8.935 43.33-7.98.626-1.465 2.101-2.467 3.98-2.2 9.228 1.596 18.697-5.421 18.72-15.83.029-12.987-14.018-19.692-23.97-14.01-2.529 1.407-5.67 1.317-8.19-.39-6.908-4.71-15.459-5.757-23.12-3.28-1.704.553-3.604-.197-4.38-1.95-3.05-6.96-8.68-12.32-15.87-15.1-1.25-.49-2.75.18-3.23 1.43-.508 1.311.154 2.744 1.43 3.23 5.93 2.31 10.58 6.73 13.09 12.44 1.747 4.007 6.219 6.077 10.51 4.71 6.177-2.01 13.141-1.18 18.76 2.66 4.149 2.805 9.347 2.916 13.46.6 6.538-3.724 16.482.361 16.51 9.66-.01 7.01-6.319 11.899-12.89 10.91-3.702-.693-7.763 1.272-9.41 5.16-5.734 13.551-24.147 17.73-35.15 6.46-9.454-9.749-25.12-8.316-33.66 1.5-8.471 9.736-24.478 5.984-27.6-6.59-1.373-5.553-5.972-9.49-12.36-9.49-8.385 0-13.839 8.041-13.86 16.36v27.32h-17.98v-27.41c0-4.41-1.69-8.78-4.76-12.31-12.718-14.668 3.395-35.935 20.62-28.76 3.466 1.456 7.535.318 9.83-2.66 6.206-8.13 18.053-8.899 25.34-2.64 3.598 3.064 8.965 2.432 11.97-1.17 2.63-3.17 5.92-5.5 9.78-6.93 1.36-.519 1.933-1.98 1.48-3.22-.47-1.25-1.95-1.94-3.22-1.47-4.63 1.72-8.74 4.63-11.88 8.42-1.214 1.459-3.424 1.817-4.87.57-9.64-8.234-24.723-6.859-32.58 3.4-.89 1.17-2.58 1.64-3.93 1.08-22.356-9.28-42.325 18.251-26.32 36.66 2.28 2.63 3.54 5.84 3.54 9.03v27.41h-8.118c-2.973 0-5.388 2.327-5.497 5.298-1.344 36.353-4.782 129.318-5.524 149.37-.052 1.418 1.084 2.592 2.499 2.592 20.174.001 230.616.001 243.831.001zm-237.178-114.72h47.956c.373 10.09 3.677 99.424 4.058 109.72h-56.072zm.767-20.67h46.422c.408 10.941.28 7.491.582 15.67h-47.586c.3-8.119.172-4.662.582-15.67zm119.781 130.39v-36.66h24.79v36.66zm114.13-120.905v24.215h-35.866zm-46.536-.001v24.215h-35.866zm46.536 29.216v91.69h-54.56v-9.95c0-1.38-1.12-2.5-2.5-2.5s-2.49 1.12-2.5 2.49v.01 9.95h-24.78v-36.66h24.78v6.71c0 1.38 1.12 2.5 2.5 2.5s2.5-1.12 2.5-2.5v-9.21c0-1.356-1.113-2.5-2.5-2.5h-59.57c-1.385 0-2.5 1.143-2.5 2.5v39.16h-58.53c-.333-9.016-3.011-81.539-3.386-91.69zm-139.61-29.216v24.216h-35.872zm-93.198-26.354h44.216c.27 0 .49.212.5.481l.421 11.389h-46.058l.421-11.389c.01-.269.23-.481.5-.481z"/></g></g></svg>