<svg id="Layer_1" enable-background="new 0 0 64 64" height="512" viewBox="0 0 64 64" width="512" xmlns="http://www.w3.org/2000/svg"><g><path d="m54.06 21.93-1.64-.09c.13-.35.06-.75-.21-1.02-.31-.31-.78-.36-1.13-.16l-.2-1.75c-.06-.53-.55-.91-1.08-.85-.53.07-.91.54-.85 1.08l.37 3.2-.62.62-.19-1.67c-.06-.53-.55-.91-1.08-.85s-.91.54-.85 1.08l.37 3.2-.62.62-.19-1.67c-.06-.53-.54-.91-1.07-.85s-.92.54-.85 1.08l.37 3.19-2.66 2.66c-1.65-1.48-3.59-2.66-5.74-3.43-1.64-.6-3.33-.94-5.02-1.04v-24.31c0-.53-.44-.97-.97-.97s-.97.44-.97.97v.58c-3.23-.94-5.8.09-8.11 1.02-2.59 1.04-4.83 1.93-7.93.53-.3-.13-.65-.11-.92.07-.28.18-.45.49-.45.81v10.76c0 .38.22.73.57.88 1.42.64 2.72.88 3.92.88 2.08 0 3.87-.73 5.54-1.39 2.42-.98 4.55-1.79 7.36-.76v10.92c-2.22.12-4.41.66-6.49 1.63-4.26 1.99-7.49 5.52-9.09 9.94-.6 1.64-.94 3.34-1.04 5.03h-2.59c-.53 0-.97.43-.97.97 0 .53.44.97.97.97h2.61c.12 2.21.66 4.41 1.63 6.49 2 4.26 5.53 7.48 9.94 9.09 1.66.6 3.36.92 5.03 1.01v2.62c0 .54.44.97.97.97s.97-.43.97-.97v-2.62c6.82-.38 13.1-4.74 15.57-11.56.59-1.64.93-3.34 1.03-5.02h2.61c.53 0 .97-.44.97-.97 0-.54-.44-.97-.97-.97h-2.61c-.13-2.22-.67-4.42-1.64-6.49-.74-1.58-1.69-3.03-2.82-4.29l2.68-2.68 3.24.17c.02.01.04.01.06.01.5 0 .93-.41.96-.92.03-.53-.38-.99-.91-1.02l-1.5-.09.53-.53 3.24.18h.05c.51 0 .94-.4.97-.92.03-.53-.38-.99-.91-1.02l-1.51-.09.53-.53 3.25.18h.03c.51 0 .94-.4.97-.92.03-.5-.38-.96-.91-.99zm-22.91 5.31c1.47.09 2.94.38 4.36.9 1.88.68 3.57 1.7 5.02 2.99l-2.12 2.12c-2.07-1.76-4.59-2.81-7.26-3.02zm-10.03-13.92c-2.42.98-4.55 1.82-7.36.78v-8.72c3.2.94 5.78-.1 8.09-1.02 2.42-.97 4.55-1.82 7.36-.78v8.72c-3.2-.93-5.78.1-8.09 1.02zm8.74 18.82h.08c.08.03.16.05.24.05s.14-.02.21-.04c2.51.05 4.83.97 6.64 2.48l-1.51 1.51c-1.53-1.22-3.48-1.93-5.6-1.87-4.74.14-8.48 4.1-8.34 8.84.14 4.64 3.97 8.34 8.58 8.34h.26c4.74-.15 8.48-4.11 8.34-8.85-.06-1.93-.76-3.68-1.88-5.09l1.52-1.51c1.49 1.78 2.41 4.05 2.49 6.55.09 2.86-.95 5.59-2.92 7.67-1.96 2.08-4.62 3.28-7.48 3.36-5.9.19-10.86-4.49-11.04-10.4-.09-2.86.95-5.59 2.91-7.67 1.98-2.09 4.64-3.29 7.5-3.37zm-.37 11.4c.19.19.44.29.69.29.24 0 .49-.1.68-.29l1.51-1.51c.1.26.16.54.16.83 0 1.29-1.06 2.35-2.36 2.35s-2.36-1.06-2.36-2.35c0-1.3 1.06-2.36 2.36-2.36.29 0 .56.06.82.16l-1.51 1.51c-.37.38-.37.99.01 1.37zm2.95-4.32c-.66-.42-1.43-.66-2.26-.66-2.37 0-4.3 1.92-4.3 4.3 0 2.37 1.93 4.29 4.3 4.29s4.3-1.92 4.3-4.29c0-.83-.25-1.61-.66-2.27l1.7-1.7c.79 1.06 1.27 2.35 1.32 3.76.11 3.68-2.79 6.74-6.46 6.86-3.65.11-6.74-2.79-6.85-6.46-.06-1.77.59-3.47 1.8-4.76 1.22-1.3 2.87-2.04 4.65-2.08.06-.01.13-.01.19-.01 1.48 0 2.85.49 3.96 1.33zm11.91-3c.85 1.81 1.33 3.73 1.44 5.67h-1.04c-.53 0-.97.43-.97.97 0 .53.44.97.97.97h1.04c-.09 1.46-.39 2.94-.9 4.36-1.43 3.93-4.3 7.07-8.09 8.84-1.81.84-3.72 1.32-5.66 1.44v-1.04c0-.53-.44-.97-.97-.97s-.97.44-.97.97v1.04c-1.47-.09-2.94-.39-4.37-.9-3.93-1.43-7.07-4.31-8.84-8.09-.84-1.81-1.32-3.73-1.44-5.66h1.05c.53 0 .97-.44.97-.97 0-.54-.44-.97-.97-.97h-1.05c.1-1.47.4-2.95.91-4.37 1.43-3.93 4.3-7.07 8.09-8.84 1.8-.84 3.72-1.31 5.66-1.43v3c-3.15.24-6.06 1.61-8.24 3.93-2.33 2.46-3.55 5.68-3.44 9.06.1 3.38 1.5 6.53 3.97 8.84 2.37 2.23 5.44 3.44 8.68 3.44h.38c3.38-.11 6.53-1.51 8.84-3.98 2.32-2.46 3.54-5.67 3.44-9.06-.09-2.93-1.16-5.67-3.04-7.86l2.12-2.12c.97 1.11 1.79 2.36 2.43 3.73z" fill="#2a2f64"/><path d="m44.76 43.83h1.04c-.09 1.46-.39 2.94-.9 4.36-1.43 3.93-4.3 7.07-8.09 8.84-1.81.84-3.72 1.32-5.66 1.44v-1.04c0-.53-.44-.97-.97-.97s-.97.44-.97.97v1.04c-1.47-.09-2.94-.39-4.37-.9-3.93-1.43-7.07-4.31-8.84-8.09-.84-1.81-1.32-3.73-1.44-5.66h1.05c.53 0 .97-.44.97-.97 0-.54-.44-.97-.97-.97h-1.05c.1-1.47.4-2.95.91-4.37 1.43-3.93 4.3-7.07 8.09-8.84 1.8-.84 3.72-1.31 5.66-1.43v3c-3.15.24-6.06 1.61-8.24 3.93-2.33 2.46-3.55 5.68-3.44 9.06.1 3.38 1.5 6.53 3.97 8.84 2.37 2.23 5.44 3.44 8.68 3.44h.38c3.38-.11 6.53-1.51 8.84-3.98 2.32-2.46 3.54-5.67 3.44-9.06-.09-2.93-1.16-5.67-3.04-7.86l2.12-2.12c.98 1.11 1.8 2.36 2.44 3.72.85 1.81 1.33 3.73 1.44 5.67h-1.04c-.53 0-.97.43-.97.97-.01.54.43.98.96.98z" fill="#53be9e"/><path d="m32.53 42.86c0 1.29-1.06 2.35-2.36 2.35s-2.36-1.06-2.36-2.35c0-1.3 1.06-2.36 2.36-2.36.29 0 .56.06.82.16l-1.51 1.51c-.38.38-.38.99 0 1.37.19.19.44.29.69.29.24 0 .49-.1.68-.29l1.51-1.51c.1.26.17.54.17.83z" fill="#f16e61"/><path d="m36.83 42.66c.11 3.68-2.79 6.74-6.46 6.86-3.65.11-6.74-2.79-6.85-6.46-.06-1.77.59-3.47 1.8-4.76 1.22-1.3 2.87-2.04 4.65-2.08.06-.01.13-.01.19-.01 1.48 0 2.85.49 3.96 1.33l-1.7 1.7c-.66-.42-1.43-.66-2.26-.66-2.37 0-4.3 1.92-4.3 4.3 0 2.37 1.93 4.29 4.3 4.29s4.3-1.92 4.3-4.29c0-.83-.25-1.61-.66-2.27l1.7-1.7c.8 1.04 1.28 2.33 1.33 3.75z" fill="#ffdc7c"/><path d="m40.89 42.54c.09 2.86-.95 5.59-2.92 7.67-1.96 2.08-4.62 3.28-7.48 3.36-5.9.19-10.86-4.49-11.04-10.4-.09-2.86.95-5.59 2.91-7.67 1.97-2.08 4.63-3.28 7.49-3.36h.08c.08.03.16.05.24.05s.14-.02.21-.04c2.51.05 4.83.97 6.64 2.48l-1.51 1.51c-1.53-1.22-3.48-1.93-5.6-1.87-4.74.14-8.48 4.1-8.34 8.84.14 4.64 3.97 8.34 8.58 8.34h.26c4.74-.15 8.48-4.11 8.34-8.85-.06-1.93-.76-3.68-1.88-5.09l1.53-1.51c1.49 1.78 2.41 4.05 2.49 6.54z" fill="#b6d9e7"/><g fill="#3ba37f"><path d="m45.8 43.83c-.09 1.46-.39 2.94-.9 4.36-1.43 3.93-4.3 7.07-8.09 8.84-1.81.84-3.72 1.32-5.66 1.44v-1.04c0-.11-.02-.21-.06-.31 7.18-.45 12.92-6.19 13.36-13.36.1.04.2.06.31.06h1.04z"/><path d="m45.8 41.89h-1.04c-.11 0-.2.02-.3.06-.2-3.25-1.48-6.21-3.5-8.5l.95-.95c.98 1.11 1.8 2.36 2.44 3.72.86 1.81 1.33 3.73 1.45 5.67z"/><path d="m29.21 27.25v1.34c-7.16.48-12.87 6.21-13.31 13.36-.1-.04-.19-.06-.3-.06h-1.05c.1-1.47.4-2.95.91-4.37 1.43-3.93 4.3-7.07 8.09-8.84 1.8-.85 3.72-1.32 5.66-1.43z"/><path d="m29.26 57.13c-.04.1-.06.2-.06.31v1.04c-1.47-.09-2.94-.39-4.37-.9-3.93-1.43-7.07-4.31-8.84-8.09-.84-1.81-1.32-3.73-1.44-5.66h1.05c.11 0 .21-.02.31-.06.44 7.18 6.18 12.92 13.35 13.36z"/></g><path d="m29.21 3.59v8.72c-3.2-.93-5.78.1-8.09 1.02-2.42.98-4.55 1.82-7.36.78v-8.73c3.2.94 5.78-.1 8.09-1.02 2.42-.97 4.54-1.82 7.36-.77z" fill="#4dbde5"/><path d="m21.85 4.36c-2.31.92-4.89 1.96-8.09 1.02v8.72c2.81 1.05 4.94.2 7.36-.78 2.31-.92 4.89-1.95 8.09-1.02v-8.71c-2.82-1.05-4.94-.2-7.36.77zm6.39 6.73c-.52-.08-1.05-.13-1.57-.13-2.26 0-4.2.78-5.91 1.45-1.51.61-2.95 1.19-4.43 1.19-.53 0-1.07-.08-1.6-.22v-6.8c.52.09 1.05.13 1.57.13 2.25 0 4.18-.77 5.88-1.44 1.63-.65 3-1.19 4.47-1.19.53 0 1.06.07 1.59.21z" fill="#37a7d9"/><path d="m40.53 31.13-2.12 2.12c-2.07-1.76-4.59-2.81-7.26-3.02v-3c1.47.09 2.94.38 4.36.9 1.88.69 3.57 1.71 5.02 3z" fill="#53be9e"/><path d="m40.53 31.13-.95.95c-2.29-2-5.22-3.28-8.44-3.5v-1.34c1.47.09 2.94.38 4.36.9 1.89.68 3.58 1.7 5.03 2.99z" fill="#3ba37f"/></g></svg>