<svg id="uuid-ef697ee3-0736-44c0-b248-9da9a418f680" height="512" viewBox="0 0 64 64" width="512" xmlns="http://www.w3.org/2000/svg"><g><g><g><path d="m4 43h33v20h-36v-17c0-1.656 1.344-3 3-3z" fill="#c3f77e"/><path d="m6 43c-1.657 0-3 1.343-3 3v17h34v-20z" fill="#a2ed50"/><path d="m41 27h18c2.208 0 4 1.792 4 4v32h-26v-32c0-2.208 1.792-4 4-4z" fill="#c3f77e"/><path d="m63 63v-32c0-.586-.133-1.139-.36-1.64-.502-.227-1.054-.36-1.64-.36h-19c-1.657 0-3 1.343-3 3v31z" fill="#a2ed50"/><path d="m9 47h20v4h-20z" fill="#6c7a98"/><path d="m11 49h18v2h-18z" fill="#56627d"/><path d="m11 51h16v12h-16z" fill="#eefdff"/><path d="m13 53h14v-2h-16v12h2z" fill="#d4f6f9"/></g><path d="m4 39h29v4h-29z" fill="#6c7a98"/><path d="m6 41h27v2h-27z" fill="#56627d"/><path d="m15 8c-2.209 0-4 1.791-4 4v3c1.921-1.921 4.526-3 7.243-3h.757c1.612 0 2.992-.958 3.625-2.332.891.82 2.069 1.332 3.375 1.332 2.761 0 5-2.239 5-5s-2.239-5-5-5c-2.296 0-4.21 1.556-4.797 3.665-.632-.418-1.388-.665-2.203-.665-2.209 0-4 1.791-4 4z" fill="#6c7a98"/><path d="m23.203 6.665c-.632-.418-1.388-.665-2.203-.665-2.209 0-4 1.791-4 4-2.011 0-3.66 1.49-3.942 3.423 1.56-.917 3.344-1.423 5.184-1.423h.757c1.612 0 2.992-.958 3.625-2.332.891.82 2.069 1.332 3.375 1.332 2.761 0 5-2.239 5-5 0-.864-.239-1.665-.625-2.375-.709-.386-1.51-.625-2.375-.625-2.296 0-4.21 1.556-4.797 3.665z" fill="#56627d"/><g><g><path d="m6 39h10l-1.6-16h-6.8z" fill="#eefdff"/><path d="m8 19-.4 4h6.8l-.4-4z" fill="#ff8282"/><path d="m9.6 23-1.6 16h8l-1.6-16z" fill="#d4f6f9"/><path d="m9.8 21-.2 2h4.8l-.2-2z" fill="#f0645a"/></g><g><path d="m21 39h10l-1.6-16h-6.8z" fill="#eefdff"/><path d="m23 19-.4 4h6.8l-.4-4z" fill="#ff8282"/><path d="m24.6 23-1.6 16h8l-1.6-16z" fill="#d4f6f9"/><path d="m24.8 21-.2 2h4.8l-.2-2z" fill="#f0645a"/></g></g></g><path d="m30 8c-2.209 0-4 1.791-4 4v3c1.921-1.921 4.526-3 7.243-3h.757c1.612 0 2.992-.958 3.625-2.332.891.82 2.069 1.332 3.375 1.332 2.761 0 5-2.239 5-5s-2.239-5-5-5c-2.296 0-4.21 1.556-4.797 3.665-.632-.418-1.388-.665-2.203-.665-2.209 0-4 1.791-4 4z" fill="#6c7a98"/><path d="m38.203 6.665c-.632-.418-1.388-.665-2.203-.665-2.209 0-4 1.791-4 4-2.011 0-3.66 1.49-3.942 3.423 1.56-.917 3.344-1.423 5.184-1.423h.757c1.612 0 2.992-.958 3.625-2.332.891.82 2.069 1.332 3.375 1.332 2.761 0 5-2.239 5-5 0-.864-.239-1.665-.625-2.375-.709-.386-1.51-.625-2.375-.625-2.296 0-4.21 1.556-4.797 3.665z" fill="#56627d"/><path d="m45 37h10v3c1.281 1.281 2 3.017 2 4.828v9.172c0 1.657-1.343 3-3 3h-8c-1.657 0-3-1.343-3-3v-9.172c0-1.811.719-3.548 2-4.828z" fill="#eefdff"/><path d="m45 37h10v2h-10z" fill="#d4f6f9"/><path d="m57 54v-9.172c0-1.811-.719-3.548-2-4.828v-3h-8v3c-1.281 1.281-2 3.017-2 4.828v9.172c0 1.657 1.343 3 3 3h6c1.657 0 3-1.343 3-3z" fill="#d4f6f9"/><path d="m47 37h8v2h-8z" fill="#bdf3f4"/><path d="m57 45v9c0 1.657-1.343 3-3 3h-8c-1.657 0-3-1.343-3-3v-9z" fill="#8fdfff"/><path d="m57 54v-9h-12v9c0 1.657 1.343 3 3 3h6c1.657 0 3-1.343 3-3z" fill="#64c8ff"/><rect fill="#6c7a98" height="4" rx="2" width="14" x="43" y="33"/><path d="m57 35h-10c-1.105 0-2 .895-2 2h10c1.105 0 2-.895 2-2z" fill="#56627d"/></g><g><path d="m59 26h-18c-2.757 0-5 2.243-5 5v11h-2v-3c0-.553-.447-1-1-1h-1.095l-1.91-19.1c-.051-.511-.481-.9-.995-.9h-6c-.514 0-.944.39-.995.9l-1.91 19.1h-3.19l-1.91-19.1c-.051-.511-.481-.9-.995-.9h-6c-.514 0-.944.39-.995.9l-1.91 19.1h-1.095c-.553 0-1 .447-1 1v3.142c-1.721.447-3 1.999-3 3.858v17c0 .553.447 1 1 1h62c.553 0 1-.447 1-1v-32c0-2.757-2.243-5-5-5zm-35.095-6h4.189l.2 2h-4.589zm-.4 4h4.99l1.4 14h-7.79zm-14.6-4h4.189l.2 2h-4.589zm-.4 4h4.99l1.4 14h-7.79zm-3.505 16h27v2h-27zm21 22h-14v-10h14zm-16-12v-2h18v2zm26 12h-8v-10h1c.553 0 1-.447 1-1v-4c0-.553-.447-1-1-1h-20c-.553 0-1 .447-1 1v4c0 .553.447 1 1 1h1v10h-8v-16c0-1.103.897-2 2-2h32zm26 0h-24v-31c0-1.654 1.346-3 3-3h18c1.654 0 3 1.346 3 3z"/><path d="m58 35c0-1.654-1.346-3-3-3h-10c-1.654 0-3 1.346-3 3 0 1.302.839 2.402 2 2.816v1.787c-1.275 1.427-2 3.308-2 5.226v9.172c0 2.206 1.794 4 4 4h8c2.206 0 4-1.794 4-4v-9.172c0-1.918-.725-3.799-2-5.226v-1.787c1.161-.414 2-1.514 2-2.816zm-2 19c0 1.103-.897 2-2 2h-8c-1.103 0-2-.897-2-2v-8h12zm-1.707-13.293c.888.888 1.459 2.057 1.64 3.293h-11.865c.18-1.236.752-2.405 1.64-3.293.188-.188.293-.441.293-.707v-2h8v2c0 .266.105.52.293.707zm.707-4.707h-10c-.552 0-1-.448-1-1s.448-1 1-1h10c.552 0 1 .448 1 1s-.448 1-1 1z"/><path d="m47.5 52h1.5v1.5c0 .553.447 1 1 1s1-.447 1-1v-1.5h1.5c.553 0 1-.447 1-1s-.447-1-1-1h-1.5v-1.5c0-.553-.447-1-1-1s-1 .447-1 1v1.5h-1.5c-.553 0-1 .447-1 1s.447 1 1 1z"/><path d="m11.707 15.707c1.746-1.746 4.066-2.707 6.535-2.707h.758c1.528 0 2.958-.711 3.895-1.88.649.398 1.368.659 2.114.786 0 .032-.009.063-.009.095v3c0 .891 1.077 1.337 1.707.707 1.746-1.746 4.066-2.707 6.535-2.707h.758c1.528 0 2.958-.711 3.895-1.88.934.572 2.005.88 3.105.88 3.309 0 6-2.691 6-6s-2.691-5.999-6-5.999c-2.271 0-4.322 1.307-5.329 3.288-.533-.19-1.097-.288-1.671-.288-.904 0-1.751.244-2.484.665-.913-2.15-3.037-3.667-5.516-3.667-2.271 0-4.322 1.307-5.329 3.288-.533-.19-1.097-.288-1.671-.288-2.444 0-4.484 1.763-4.916 4.084-2.321.432-4.084 2.472-4.084 4.916v3c0 .891 1.077 1.337 1.707.707zm19.293-7.705c0-1.654 1.346-3 3-3 .588 0 1.158.173 1.65.498.566.375 1.334.089 1.516-.566.481-1.726 2.058-2.932 3.834-2.932 2.206 0 4 1.794 4 4s-1.794 4-4 4c-.992 0-1.95-.379-2.697-1.067-.499-.46-1.301-.3-1.585.316-.49 1.064-1.557 1.751-2.717 1.751h-.758c-2.256 0-4.41.66-6.242 1.889v-.889c0-1.654 1.346-3 3-3 .552 0 1-.448 1-1zm-19 3.998c0-1.654 1.346-3 3-3 .552 0 1-.448 1-1 0-1.654 1.346-3 3-3 .588 0 1.158.173 1.65.498.566.375 1.334.089 1.516-.566.481-1.726 2.058-2.932 3.834-2.932 1.918 0 3.522 1.358 3.908 3.162-.397.57-.693 1.216-.824 1.924-1.624.302-2.958 1.399-3.623 2.863-.795-.112-1.548-.454-2.158-1.016-.499-.46-1.301-.3-1.585.316-.49 1.064-1.557 1.751-2.717 1.751h-.758c-2.256 0-4.41.66-6.242 1.889v-.889z"/></g></svg>