<svg id="Filled_outline" height="512" viewBox="0 0 128 128" width="512" xmlns="http://www.w3.org/2000/svg" data-name="Filled outline"><g id="Color"><path d="m114.5 1.5h-90c-6.63 0-12 7.16-12 16v93h-7.749a3.014 3.014 0 0 0 -2.958 3.533c1.207 7.139 5.988 12.467 11.707 12.467h77c6.63 0 12-7.16 12-16v-93h20.749a3.014 3.014 0 0 0 2.958-3.533c-1.207-7.139-5.988-12.467-11.707-12.467z" fill="#03a9f4"/><path d="m13.5 126.5h77c-5.96 0-10.9-5.785-11.84-13.376a2.987 2.987 0 0 0 -2.965-2.624h-70.946a3.013 3.013 0 0 0 -2.956 3.533c1.207 7.139 5.988 12.467 11.707 12.467z" fill="#81d4fa"/><path d="m114.5 1.5c-6.63 0-12 7.16-12 16h20.749a3.014 3.014 0 0 0 2.958-3.533c-1.207-7.139-5.988-12.467-11.707-12.467z" fill="#0288d1"/><g fill="#eceff1"><circle cx="34" cy="52" r="4.5"/><rect height="7" rx="1.62" width="34" x="52.5" y="48.5"/><circle cx="34" cy="73" r="4.5"/><rect height="7" rx="1.62" width="34" x="52.5" y="69.5"/><circle cx="34" cy="94" r="4.5"/><rect height="7" rx="1.62" width="34" x="52.5" y="90.5"/></g></g><g id="Outline"><path d="m60.7 36.5a1.5 1.5 0 0 0 1.5-1.5v-5h6.6v5a1.5 1.5 0 0 0 3 0v-11.2a6.3 6.3 0 1 0 -12.6 0v11.2a1.5 1.5 0 0 0 1.5 1.5zm1.5-12.7a3.3 3.3 0 1 1 6.6 0v3.2h-6.6z"/><path d="m55.8 35a1.5 1.5 0 0 0 -1.5-1.5h-8.1v-14.5a1.5 1.5 0 0 0 -3 0v14.5a3 3 0 0 0 3 3h8.1a1.5 1.5 0 0 0 1.5-1.5z"/><path d="m35.231 17.5h-4.731a3 3 0 0 0 -3 3v14.5a1.5 1.5 0 0 0 3 0v-6.5h4.731a5.275 5.275 0 0 0 5.269-5.269v-.462a5.275 5.275 0 0 0 -5.269-5.269zm2.269 5.731a2.272 2.272 0 0 1 -2.269 2.269h-4.731v-5h4.731a2.272 2.272 0 0 1 2.269 2.269z"/><path d="m87 17.5a1.5 1.5 0 0 0 -1.5 1.5v11.429l-6.23-11.837a2 2 0 0 0 -3.77.931v15.477a1.5 1.5 0 0 0 3 0v-11.429l6.23 11.837a2 2 0 0 0 3.77-.931v-15.477a1.5 1.5 0 0 0 -1.5-1.5z"/><path d="m34 46a6 6 0 1 0 6 6 6.006 6.006 0 0 0 -6-6zm0 9a3 3 0 1 1 3-3 3 3 0 0 1 -3 3z"/><path d="m84.88 47h-30.76a3.124 3.124 0 0 0 -3.12 3.12v3.76a3.124 3.124 0 0 0 3.12 3.12h30.76a3.124 3.124 0 0 0 3.12-3.12v-3.76a3.124 3.124 0 0 0 -3.12-3.12zm.12 6.88a.12.12 0 0 1 -.12.12h-30.76a.12.12 0 0 1 -.12-.12v-3.76a.12.12 0 0 1 .12-.12h30.76a.12.12 0 0 1 .12.12z"/><path d="m34 67a6 6 0 1 0 6 6 6.006 6.006 0 0 0 -6-6zm0 9a3 3 0 1 1 3-3 3 3 0 0 1 -3 3z"/><path d="m84.88 68h-30.76a3.124 3.124 0 0 0 -3.12 3.12v3.76a3.124 3.124 0 0 0 3.12 3.12h30.76a3.124 3.124 0 0 0 3.12-3.12v-3.76a3.124 3.124 0 0 0 -3.12-3.12zm.12 6.88a.12.12 0 0 1 -.12.12h-30.76a.12.12 0 0 1 -.12-.12v-3.76a.12.12 0 0 1 .12-.12h30.76a.12.12 0 0 1 .12.12z"/><path d="m34 88a6 6 0 1 0 6 6 6.006 6.006 0 0 0 -6-6zm0 9a3 3 0 1 1 3-3 3 3 0 0 1 -3 3z"/><path d="m84.88 89h-30.76a3.124 3.124 0 0 0 -3.12 3.12v3.76a3.124 3.124 0 0 0 3.12 3.12h30.76a3.124 3.124 0 0 0 3.12-3.12v-3.76a3.124 3.124 0 0 0 -3.12-3.12zm.12 6.88a.12.12 0 0 1 -.12.12h-30.76a.12.12 0 0 1 -.12-.12v-3.76a.12.12 0 0 1 .12-.12h30.76a.12.12 0 0 1 .12.12z"/><path d="m127.686 13.718c-1.364-8.077-6.786-13.718-13.186-13.718h-90c-7.444 0-13.5 7.851-13.5 17.5v91.5h-6.249a4.487 4.487 0 0 0 -3.43 1.592 4.539 4.539 0 0 0 -1.007 3.69c1.364 8.077 6.786 13.718 13.186 13.718h77c7.444 0 13.5-7.851 13.5-17.5v-91.5h19.249a4.485 4.485 0 0 0 3.43-1.593 4.536 4.536 0 0 0 1.007-3.689zm-114.186 111.282c-4.829 0-9.13-4.717-10.228-11.217a1.539 1.539 0 0 1 .341-1.254 1.467 1.467 0 0 1 1.138-.529h70.944a1.492 1.492 0 0 1 1.477 1.308 18.445 18.445 0 0 0 5.746 11.692zm87.5-107.5v93c0 8-4.71 14.5-10.5 14.5-5.051 0-9.5-5.185-10.351-12.06a4.5 4.5 0 0 0 -4.454-3.94h-61.695v-91.5c0-7.995 4.71-14.5 10.5-14.5h82.45c-3.587 3.149-5.95 8.473-5.95 14.5zm23.388-2.029a1.471 1.471 0 0 1 -1.139.529h-19.192c.545-7.293 5.02-13 10.443-13 4.829 0 9.13 4.717 10.228 11.217a1.542 1.542 0 0 1 -.34 1.254z"/></g></svg>