<svg id="a" height="512" viewBox="0 0 64 64" width="512" xmlns="http://www.w3.org/2000/svg"><path d="m8 8h7v21h2v-22c0-1.13-.39-2.16-1.03-3h26.03c2.76 0 5 2.24 5 5v45h-22.52c-.42 0-.8.27-.94.67-1.02 2.87-3.58 4.9-6.54 5.27v-24.94h-2v26c0 .55.45 1 1 1h34c1.88 0 3.64-.73 4.94-2.05 1.33-1.31 2.06-3.07 2.06-4.95 0-.55-.45-1-1-1h-7v-45c0-3.86-3.14-7-7-7h-30c-2.76 0-5 2.24-5 5 0 .55.45 1 1 1zm46.9 48c-.19.96-.66 1.83-1.37 2.54-.94.94-2.19 1.46-3.53 1.46h-28.01c1.36-1.02 2.47-2.39 3.17-4zm-42.9-52c1.3 0 2.42.84 2.83 2h-5.66c.41-1.16 1.53-2 2.83-2z"/><path d="m15 31h2v2h-2z"/><path d="m19 42h26v-2h-2v-11.8c0-.37-.2-.71-.53-.88l-5.47-2.92v-3.4c0-.55-.45-1-1-1h-1v-3c0-.55-.45-1-1-1h-4c-.55 0-1 .45-1 1v3h-1c-.55 0-1 .45-1 1v3.4l-5.47 2.92c-.33.17-.53.51-.53.88v11.8h-2zm18-15.33 4 2.13v11.2h-4zm-6-8.67h2v2h-2zm-2 4h6v18h-2v-3h-2v3h-2zm-6 6.8 4-2.13v13.33h-4z"/><path d="m19 6h4v2h-4z"/><path d="m25 6h18v2h-18z"/><path d="m41 12h4v2h-4z"/><path d="m19 12h20v2h-20z"/><path d="m19 44h4v2h-4z"/><path d="m25 44h20v2h-20z"/><path d="m41 50h4v2h-4z"/><path d="m19 50h20v2h-20z"/></svg>