<svg id="Layer_1" enable-background="new 0 0 512.002 512.002" height="512" viewBox="0 0 512.002 512.002" width="512" xmlns="http://www.w3.org/2000/svg"><g><g clip-rule="evenodd" fill-rule="evenodd"><path d="m287.587 269.401c-4.159-19.124-1.466-60-31.586-60s-27.428 40.881-31.586 60z" fill="#ff9c9b"/><path d="m256.001 209.401c30.12 0 27.427 40.876 31.586 60h-63.172c4.158-19.119 1.466-60 31.586-60zm0-77.4c-55.228 0-100 44.772-100 100s44.772 100 100 100 100-44.772 100-100-44.772-100-100-100z" fill="#ff5a58"/><path d="m256.001 82.002h40v-32.002c0-22.001-18-40-40-40-21.999 0-40 17.999-40 40v32.002z" fill="#dad0d3"/><path d="m396.001 82.002h-100-40-40-100c-11 0-20 9-20 20v380c0 11 9 20 20 20h280c11 0 20-9 20-20v-380c0-11.001-9-20-20-20zm-140 49.999c55.228 0 100 44.772 100 100s-44.772 100-100 100-100-44.772-100-100 44.772-100 100-100z" fill="#fff"/></g><g><path d="m396.001 72.002h-90.001v-22.002c0-27.57-22.43-50-50-50-27.569 0-49.999 22.43-49.999 50v22.001h-90.001c-16.542 0-29.999 13.458-29.999 30v380c0 16.542 13.457 30 29.999 30h280.001c16.542 0 29.999-13.458 29.999-30v-380c0-16.542-13.457-29.999-29.999-29.999zm-170-.001v-22.001c0-16.542 13.458-30 29.999-30 16.542 0 30 13.458 30 30v22.001h-20v-22.001c0-5.523-4.478-10-10-10s-10 4.477-10 10v22.001h-19.999c0 .001 0 .001 0 0zm179.999 410.001c0 5.514-4.485 10-9.999 10h-280.001c-5.514 0-9.999-4.486-9.999-10v-380c0-5.514 4.485-10 9.999-10h280.001c5.514 0 9.999 4.486 9.999 10z"/><path d="m256 372c-17.921 0-32.5 14.58-32.5 32.5v35c0 17.92 14.58 32.5 32.501 32.5 17.92 0 32.499-14.579 32.499-32.5v-35c0-17.92-14.579-32.5-32.5-32.5zm12.5 67.501c0 6.892-5.607 12.5-12.5 12.5s-12.5-5.607-12.5-12.5v-35c0-6.893 5.607-12.5 12.5-12.5h.001c6.892 0 12.499 5.607 12.499 12.5z"/><path d="m185.459 394.238c3.906 3.905 10.236 3.905 14.143 0 3.905-3.905 3.905-10.237 0-14.143-10.775-10.775-28.311-10.775-39.088 0-10.775 10.776-10.775 28.311 0 39.087l19.778 19.778c1.443 1.443 2.237 3.361 2.237 5.401 0 2.041-.794 3.958-2.237 5.401-2.979 2.979-7.824 2.978-10.803 0-3.906-3.905-10.236-3.905-14.143 0-3.905 3.905-3.905 10.237 0 14.143 5.389 5.389 12.466 8.082 19.544 8.082 7.077 0 14.156-2.694 19.544-8.082 5.221-5.221 8.096-12.161 8.096-19.544s-2.876-14.323-8.096-19.543l-19.778-19.777c-2.978-2.979-2.978-7.825 0-10.803 2.979-2.979 7.825-2.978 10.803 0z"/><path d="m337.11 392c2.041 0 3.959.794 5.401 2.237 3.904 3.905 10.237 3.906 14.142.001 3.906-3.905 3.906-10.237.001-14.143-5.22-5.221-12.16-8.096-19.543-8.096-.001 0 0 0-.001 0-7.382 0-14.323 2.875-19.544 8.095-10.775 10.777-10.774 28.311.001 39.087l19.777 19.778c2.979 2.978 2.979 7.824.001 10.802-2.979 2.979-7.824 2.978-10.803 0-3.906-3.905-10.236-3.905-14.143 0-3.905 3.905-3.905 10.237 0 14.143 5.389 5.389 12.465 8.082 19.544 8.082 7.077 0 14.156-2.695 19.544-8.082 10.775-10.777 10.775-28.312-.001-39.086l-19.777-19.778c-2.979-2.979-2.979-7.825-.001-10.803 1.443-1.442 3.362-2.237 5.402-2.237z"/><path d="m304.248 133.127c-4.964-2.426-10.95-.368-13.376 4.593-2.425 4.962-.369 10.951 4.593 13.376 31.173 15.237 50.537 46.238 50.537 80.905 0 49.626-40.374 90-90.001 90-49.626 0-90-40.374-90-90 0-34.665 19.362-65.665 50.531-80.903 4.961-2.426 7.017-8.415 4.591-13.376-2.425-4.961-8.41-7.019-13.376-4.592-18.234 8.915-33.648 22.69-44.575 39.837-11.234 17.629-17.172 38.042-17.172 59.034 0 60.654 49.346 110 110 110s110.001-49.346 110.001-110c0-20.994-5.938-41.408-17.173-59.037-10.927-17.147-26.343-30.922-44.58-39.837z"/><path d="m214.644 267.277c-.643 2.956.087 6.044 1.985 8.399s4.761 3.725 7.786 3.725h63.171c3.025 0 5.888-1.37 7.786-3.725s2.628-5.444 1.985-8.4c-.73-3.361-1.267-7.878-1.834-12.66-1.294-10.899-2.76-23.253-7.479-33.722-5.583-12.387-14.001-17.945-22.044-20.178v-6.115c0-5.523-4.478-10-10-10s-10 4.477-10 10v6.116c-8.043 2.233-16.462 7.792-22.045 20.181-4.719 10.471-6.185 22.824-7.479 33.724-.566 4.78-1.101 9.295-1.832 12.655zm21.694-10.299c3.021-25.46 6.733-37.577 19.662-37.577s16.642 12.115 19.662 37.572c.097.817.193 1.627.29 2.428h-39.903c.096-.799.193-1.608.289-2.423z"/><path d="m256 142.001c5.522 0 10-4.477 10-10s-4.478-10-10-10h-.007c-5.522 0-9.996 4.477-9.996 10s4.481 10 10.003 10z"/></g></g></svg>