<svg id="Layer_1" height="512" viewBox="0 0 128 128" width="512" xmlns="http://www.w3.org/2000/svg" data-name="Layer 1"><path d="m117.75 12a1.75 1.75 0 0 0 -3.5 0 7.7 7.7 0 0 1 -7.692 7.692h-85.116a7.7 7.7 0 0 1 -7.692-7.692 1.75 1.75 0 0 0 -3.5 0 11.2 11.2 0 0 0 11.192 11.192h22.439v3.595a1.75 1.75 0 0 0 1.75 1.75h11.6v10.229h-3.906a8.714 8.714 0 0 0 -8.7 8.7v21.35a8.7 8.7 0 0 0 5.813 8.207 5.975 5.975 0 0 0 4.07 4.439v6.561l-3.417 4.591a1.751 1.751 0 0 0 1.4 2.795h23.018a1.751 1.751 0 0 0 1.4-2.795l-3.409-4.588v-6.561a5.976 5.976 0 0 0 4.071-4.442 8.734 8.734 0 0 0 5.812-8.2v-21.353a8.714 8.714 0 0 0 -8.7-8.7h-3.916v-10.233h11.6a1.75 1.75 0 0 0 1.75-1.75v-3.595h22.438a11.2 11.2 0 0 0 11.195-11.192zm-47.75 69.729v5.128h-12v-5.128zm-14.024 10.183 1.157-1.556h13.734l1.157 1.556zm15.77-13.683h-15.492a2.456 2.456 0 0 1 -2.451-2.42 1.765 1.765 0 0 0 .013-.2 2.451 2.451 0 0 1 2.438-2.288h15.492a2.455 2.455 0 1 1 0 4.91zm2.929-35.963a5.211 5.211 0 0 1 5.2 5.2v21.35a5.215 5.215 0 0 1 -2.693 4.543 5.961 5.961 0 0 0 -5.44-3.544h-15.488a5.961 5.961 0 0 0 -5.443 3.549 5.194 5.194 0 0 1 -2.69-4.548v-21.346a5.211 5.211 0 0 1 5.2-5.2h3.908v8.1a1.75 1.75 0 0 0 1.75 1.75h10.038a1.75 1.75 0 0 0 1.75-1.75v-8.1zm-7.408 6.346h-6.534v-20.075h6.533zm13.352-23.575h-33.238v-1.845h33.238z"/><path d="m41.5 91.912h-6a1.75 1.75 0 0 0 0 3.5h6a1.75 1.75 0 0 0 0-3.5z"/><path d="m29.838 91.912h-6.177a1.75 1.75 0 1 0 0 3.5h6.177a1.75 1.75 0 1 0 0-3.5z"/><path d="m18 95.412a1.75 1.75 0 0 0 0-3.5h-6a1.75 1.75 0 0 0 0 3.5z"/><path d="m40.492 98.306-5.781 1.607a1.75 1.75 0 0 0 .468 3.437 1.777 1.777 0 0 0 .47-.063l5.781-1.607a1.75 1.75 0 1 0 -.937-3.373z"/><path d="m29.257 101.43-5.951 1.654a1.75 1.75 0 0 0 .468 3.437 1.777 1.777 0 0 0 .47-.063l5.951-1.654a1.75 1.75 0 1 0 -.937-3.373z"/><path d="m17.852 104.6-5.781 1.607a1.75 1.75 0 0 0 .468 3.437 1.777 1.777 0 0 0 .47-.063l5.781-1.607a1.75 1.75 0 1 0 -.937-3.373z"/><path d="m34.711 87.411 5.781 1.607a1.777 1.777 0 0 0 .47.063 1.75 1.75 0 0 0 .468-3.437l-5.781-1.607a1.75 1.75 0 1 0 -.937 3.373z"/><path d="m23.306 84.239 5.951 1.654a1.777 1.777 0 0 0 .47.063 1.75 1.75 0 0 0 .468-3.437l-5.951-1.654a1.75 1.75 0 0 0 -.937 3.373z"/><path d="m17.852 82.722a1.75 1.75 0 1 0 .938-3.371l-5.781-1.608a1.75 1.75 0 0 0 -.937 3.371z"/><path d="m92.5 95.412a1.75 1.75 0 0 0 0-3.5h-6a1.75 1.75 0 0 0 0 3.5z"/><path d="m104.339 91.912h-6.177a1.75 1.75 0 0 0 0 3.5h6.177a1.75 1.75 0 0 0 0-3.5z"/><path d="m116 91.912h-6a1.75 1.75 0 0 0 0 3.5h6a1.75 1.75 0 0 0 0-3.5z"/><path d="m93.289 99.913-5.781-1.607a1.75 1.75 0 1 0 -.937 3.373l5.781 1.607a1.777 1.777 0 0 0 .47.063 1.75 1.75 0 0 0 .468-3.437z"/><path d="m104.694 103.084-5.951-1.654a1.75 1.75 0 0 0 -.937 3.373l5.951 1.654a1.777 1.777 0 0 0 .47.063 1.75 1.75 0 0 0 .468-3.437z"/><path d="m115.93 106.209-5.781-1.607a1.75 1.75 0 0 0 -.937 3.373l5.781 1.607a1.777 1.777 0 0 0 .47.063 1.75 1.75 0 0 0 .468-3.437z"/><path d="m92.352 84.038-5.782 1.608a1.75 1.75 0 0 0 .468 3.437 1.777 1.777 0 0 0 .47-.063l5.781-1.607a1.75 1.75 0 1 0 -.937-3.373z"/><path d="m98.273 85.957a1.777 1.777 0 0 0 .47-.063l5.951-1.654a1.75 1.75 0 1 0 -.937-3.373l-5.951 1.654a1.75 1.75 0 0 0 .468 3.437z"/><path d="m114.992 77.742-5.781 1.608a1.75 1.75 0 1 0 .938 3.371l5.781-1.608a1.75 1.75 0 1 0 -.937-3.371z"/><path d="m64 100.539a1.75 1.75 0 0 0 -1.75 1.75v13.711a1.75 1.75 0 0 0 3.5 0v-13.711a1.75 1.75 0 0 0 -1.75-1.75z"/><path d="m58.377 101.228a1.747 1.747 0 0 0 -2.308.894l-3.663 8.3a1.75 1.75 0 1 0 3.2 1.414l3.663-8.3a1.749 1.749 0 0 0 -.892-2.308z"/><path d="m71.931 102.121a1.75 1.75 0 1 0 -3.2 1.414l3.663 8.3a1.75 1.75 0 0 0 3.2-1.414z"/></svg>